<svg width="30" height="30" viewBox="0 0 30 30" fill="none" xmlns="http://www.w3.org/2000/svg">
<path fill-rule="evenodd" clip-rule="evenodd" d="M15 1.25C7.40625 1.25 1.25 7.40625 1.25 15C1.25 22.5938 7.40625 28.75 15 28.75C22.5938 28.75 28.75 22.5938 28.75 15C28.75 7.40625 22.5938 1.25 15 1.25ZM16.25 20C16.25 20.3315 16.1183 20.6495 15.8839 20.8839C15.6495 21.1183 15.3315 21.25 15 21.25C14.6685 21.25 14.3505 21.1183 14.1161 20.8839C13.8817 20.6495 13.75 20.3315 13.75 20V16.25H10C9.66848 16.25 9.35054 16.1183 9.11612 15.8839C8.8817 15.6495 8.75 15.3315 8.75 15C8.75 14.6685 8.8817 14.3505 9.11612 14.1161C9.35054 13.8817 9.66848 13.75 10 13.75H13.75V10C13.75 9.66848 13.8817 9.35054 14.1161 9.11612C14.3505 8.8817 14.6685 8.75 15 8.75C15.3315 8.75 15.6495 8.8817 15.8839 9.11612C16.1183 9.35054 16.25 9.66848 16.25 10V13.75H20C20.3315 13.75 20.6495 13.8817 20.8839 14.1161C21.1183 14.3505 21.25 14.6685 21.25 15C21.25 15.3315 21.1183 15.6495 20.8839 15.8839C20.6495 16.1183 20.3315 16.25 20 16.25H16.25V20Z" fill="white"/>
</svg>
