<svg width="24" height="24" viewBox="0 0 24 24" fill="none" xmlns="http://www.w3.org/2000/svg">
<path fill-rule="evenodd" clip-rule="evenodd" d="M16.5 22.5C18.0913 22.5 19.6174 21.8679 20.7426 20.7426C21.8679 19.6174 22.5 18.0913 22.5 16.5C22.5 14.9087 21.8679 13.3826 20.7426 12.2574C19.6174 11.1321 18.0913 10.5 16.5 10.5C14.9087 10.5 13.3826 11.1321 12.2574 12.2574C11.1321 13.3826 10.5 14.9087 10.5 16.5C10.5 18.0913 11.1321 19.6174 12.2574 20.7426C13.3826 21.8679 14.9087 22.5 16.5 22.5ZM24 16.5C24 18.4891 23.2098 20.3968 21.8033 21.8033C20.3968 23.2098 18.4891 24 16.5 24C14.5109 24 12.6032 23.2098 11.1967 21.8033C9.79018 20.3968 9 18.4891 9 16.5C9 14.5109 9.79018 12.6032 11.1967 11.1967C12.6032 9.79018 14.5109 9 16.5 9C18.4891 9 20.3968 9.79018 21.8033 11.1967C23.2098 12.6032 24 14.5109 24 16.5Z" fill="#F1590E"/>
<path d="M14.1573 17.916C14.2278 18.81 14.9343 19.506 16.2018 19.59V20.25H16.7643V19.5855C18.0768 19.494 18.8433 18.792 18.8433 17.775C18.8433 16.848 18.2583 16.371 17.2083 16.125L16.7643 16.02V14.22C17.3283 14.2845 17.6853 14.592 17.7708 15.018H18.7578C18.6873 14.1555 17.9478 13.482 16.7643 13.4085V12.75H16.2018V13.425C15.0813 13.5345 14.3193 14.208 14.3193 15.162C14.3193 16.005 14.8863 16.542 15.8298 16.761L16.2018 16.8525V18.7605C15.6258 18.6735 15.2433 18.3555 15.1578 17.916H14.1558H14.1573ZM16.1973 15.885C15.6438 15.7575 15.3438 15.495 15.3438 15.102C15.3438 14.661 15.6678 14.331 16.2018 14.235V15.885H16.1973ZM16.8453 17.004C17.5188 17.16 17.8278 17.412 17.8278 17.8575C17.8278 18.366 17.4423 18.714 16.7643 18.7785V16.986L16.8453 17.004Z" fill="#F1590E"/>
<path d="M1.5 0C1.10218 0 0.720644 0.158035 0.43934 0.43934C0.158035 0.720644 0 1.10218 0 1.5L0 13.5C0 13.8978 0.158035 14.2794 0.43934 14.5607C0.720644 14.842 1.10218 15 1.5 15H7.6245C7.7115 14.484 7.842 13.983 8.0115 13.5H4.5C4.5 12.7044 4.18393 11.9413 3.62132 11.3787C3.05871 10.8161 2.29565 10.5 1.5 10.5V4.5C2.29565 4.5 3.05871 4.18393 3.62132 3.62132C4.18393 3.05871 4.5 2.29565 4.5 1.5H19.5C19.5 2.29565 19.8161 3.05871 20.3787 3.62132C20.9413 4.18393 21.7044 4.5 22.5 4.5V9.792C23.07 10.302 23.5755 10.884 24 11.523V1.5C24 1.10218 23.842 0.720644 23.5607 0.43934C23.2794 0.158035 22.8978 0 22.5 0L1.5 0Z" fill="#F1590E"/>
<path d="M14.997 7.62467L15 7.50017C14.9997 6.98356 14.866 6.47578 14.6118 6.02601C14.3577 5.57624 13.9917 5.19973 13.5493 4.93295C13.1069 4.66616 12.6031 4.51813 12.0867 4.50321C11.5703 4.48828 11.0588 4.60696 10.6017 4.84775C10.1446 5.08854 9.75751 5.44328 9.47779 5.87762C9.19807 6.31195 9.03526 6.81116 9.00511 7.32689C8.97497 7.84263 9.07851 8.3574 9.30572 8.82137C9.53293 9.28534 9.8761 9.68277 10.302 9.97517C11.5976 8.74108 13.2326 7.92253 14.997 7.62467Z" fill="#F1590E"/>
</svg>
