<svg width="60" height="60" viewBox="0 0 60 60" fill="none" xmlns="http://www.w3.org/2000/svg">
<rect width="60" height="60" rx="11" fill="white"/>
<path d="M33.8586 29.842C34.7301 29.3865 35.2748 28.5839 35.147 27.2478C34.9751 25.4213 33.4374 24.8098 31.4963 24.6363L31.4954 22.4286C31.4959 22.4216 31.4994 22.4155 31.4994 22.4082C31.4994 22.2398 31.3663 22.1035 31.2021 22.1033H30.2959C30.2171 22.1033 30.1416 22.1355 30.0859 22.1926C30.0303 22.2497 29.999 22.3272 29.999 22.4079H29.9921L29.9933 24.5702C29.5978 24.5702 29.1938 24.5783 28.7926 24.5868L28.7919 22.4347C28.7926 22.4255 28.7971 22.4174 28.7971 22.4079C28.7971 22.2395 28.664 22.1033 28.4998 22.103H27.5935C27.5148 22.1031 27.4393 22.1352 27.3836 22.1923C27.3279 22.2495 27.2967 22.3269 27.2967 22.4077L27.2895 22.4084L27.29 24.6368C26.9644 24.6436 26.6447 24.6507 26.3329 24.6507L26.3327 24.6426H24.2588V24.6458C24.2197 24.6458 24.181 24.6536 24.1449 24.6689C24.1088 24.6842 24.0761 24.7067 24.0484 24.735C24.0208 24.7633 23.9989 24.797 23.984 24.834C23.9691 24.871 23.9614 24.9106 23.9614 24.9507V25.9807C23.9614 26.1491 24.0945 26.2856 24.2588 26.2856L24.2599 26.2853V26.2899C24.2599 26.2899 25.3703 26.2678 25.3518 26.288C25.9607 26.2882 26.1592 26.6507 26.2169 26.9634L26.2181 29.8498L26.2184 29.8607L26.2195 33.9034C26.1929 34.0998 26.0803 34.4135 25.6548 34.4142C25.6741 34.4315 24.5618 34.414 24.5618 34.414L24.5615 34.4154C24.5596 34.4154 24.5582 34.4142 24.5563 34.4142C24.4135 34.4142 24.2999 34.5195 24.2711 34.6572L24.259 34.6565L23.9852 35.9163L23.9916 35.9175C23.9904 35.9287 23.9852 35.9385 23.9852 35.9502C23.9852 36.112 24.1093 36.2414 24.2647 36.2514L24.264 36.256L26.2207 36.2553C26.5848 36.2553 26.9433 36.2614 27.295 36.2636L27.2967 38.521C27.2967 38.6891 27.4305 38.8256 27.5947 38.8256H28.501C28.5797 38.8255 28.6552 38.7933 28.7109 38.7361C28.7666 38.679 28.7978 38.6015 28.7978 38.5207L28.7973 36.2909C29.2097 36.2994 29.6087 36.3026 29.9985 36.3016L29.999 38.521C29.9992 38.6891 30.1328 38.8256 30.2968 38.8256H31.2031C31.2818 38.8255 31.3573 38.7933 31.413 38.7361C31.4686 38.679 31.4999 38.6015 31.4999 38.5207L31.5018 38.5205L31.5013 36.2668C34.029 36.1169 35.7982 35.4632 36.0169 33.0287C36.1932 31.0689 35.2936 30.1944 33.8586 29.842ZM28.8282 26.3994C29.677 26.3989 32.3432 26.121 32.3441 27.9378C32.3444 29.6799 29.6779 29.4776 28.8292 29.4781L28.8282 26.3994ZM28.8308 34.4264L28.8301 31.0316C29.8493 31.0316 33.0448 30.7299 33.0455 32.7267C33.0469 34.6414 29.85 34.4247 28.8308 34.4264Z" fill="#F1590E"/>
<circle cx="30.0001" cy="30.0001" r="14.15" stroke="#F1590E" stroke-width="0.5"/>
</svg>
