<svg width="48" height="51" viewBox="0 0 48 51" fill="none" xmlns="http://www.w3.org/2000/svg">
<g clip-path="url(#clip0_130:1409)">
<path d="M9.01953 8.12027L9.79654 7.82227L10.0006 8.26368L10.095 9.3186L9.92112 9.44382L9.01953 8.12027Z" fill="black"/>
<path d="M12.7947 10.1982L11.9072 10.7082L12.8398 12.0751L13.0573 11.9177L13.1924 10.8327L12.7947 10.1982Z" fill="black"/>
<g opacity="0.05">
<path opacity="0.05" d="M14.6562 3.83008C14.4775 4.09871 14.3107 4.38972 14.2593 4.59399L14.4 4.49745C14.3824 4.34565 14.4986 4.09381 14.6562 3.83008Z" fill="black"/>
<path opacity="0.05" d="M15.4565 7.48619L15.5543 5.44141C13.3725 6.81742 10.18 8.07311 10.18 8.07311L10.0259 8.31586C10.0259 8.31586 13.2219 7.06016 15.4002 5.68415L15.3087 7.61001L15.4565 7.48619Z" fill="black"/>
</g>
<g opacity="0.5">
<path opacity="0.5" d="M9.74474 9.54287L9.92351 9.41346L9.82708 8.32705L9.61664 7.87305L8.81641 8.18015L9.74474 9.54287Z" fill="url(#paint0_linear_130:1409)"/>
<path opacity="0.5" d="M21.9292 0.131314C21.4429 -0.100936 21.079 0.00819348 20.8242 0.201269C20.5968 0.371509 20.4192 0.598995 20.3097 0.860245L20.2393 1.04563L19.91 1.28347L19.803 1.05612C19.803 1.05612 18.6368 -1.00336 15.1965 3.01836L15.181 3.00577C15.181 3.00577 14.8883 3.36184 14.6215 3.76128L14.5835 3.81864L14.5666 3.84453L14.5427 3.8816L14.5251 3.90958L14.4983 3.95366L14.4751 3.99143L14.4505 4.03271L14.4329 4.06279L14.4146 4.09427L14.397 4.12575L14.3787 4.15932L14.3519 4.20969L14.3372 4.23767L14.321 4.27055L14.309 4.29574L14.2935 4.32862L14.2837 4.3503C14.2752 4.36989 14.2673 4.38901 14.2597 4.40766L14.2513 4.42935L14.24 4.46013L14.233 4.48112C14.2278 4.49697 14.2232 4.5126 14.2189 4.52799C14.2189 4.53638 14.214 4.54408 14.2126 4.55177C14.1988 4.60089 14.1936 4.652 14.1971 4.70288L9.6167 7.87114L9.85177 8.37901C9.85177 8.37901 13.1435 7.08624 15.3873 5.66825L15.2929 7.65148L15.2873 7.7739C15.2873 7.7739 13.2378 9.46051 12.7043 10.3196L11.7894 10.8449L12.7501 12.2524L12.9739 12.0908L13.1146 10.9715L16.8751 7.98376C16.8751 7.98376 17.5881 6.6889 17.6007 5.60529L17.7549 6.19641C17.7549 6.19641 18.0829 7.11213 18.3144 7.1485C18.546 7.18488 18.5467 6.43846 18.3848 6.2167C18.2229 5.99494 18.2989 4.5133 18.2989 4.5133L18.3412 4.21179L18.9295 3.78646L18.9514 3.76618L18.9823 3.95226L19.1006 3.96275V3.97114L19.1062 4.02501L19.1822 5.4374L19.5989 7.03518C19.5989 7.03518 19.9268 7.95089 20.1584 7.98726C20.39 8.02364 20.3907 7.27722 20.2288 7.05546C20.0669 6.8337 20.1436 5.35276 20.1436 5.35276L20.3154 4.11945V4.09566L20.3189 4.06838L20.6574 4.09776C20.6574 4.09776 21.0093 2.89524 20.4202 2.37127L20.3132 2.14392L20.5328 1.98582L20.5772 1.95434C20.7633 2.13529 21.0133 2.23662 21.2736 2.23662C21.5339 2.23662 21.7839 2.13529 21.97 1.95434C22.1347 1.96956 22.2994 1.92591 22.4345 1.83122L22.5197 1.77036C22.6113 1.71254 22.6941 1.64185 22.7653 1.5605C22.8251 1.44997 22.6823 0.490184 21.9292 0.131314Z" fill="url(#paint1_linear_130:1409)"/>
</g>
<path d="M15.2022 3.09668C15.2022 3.09668 14.2006 4.3139 14.2478 4.74062L9.79688 7.82214L10.0249 8.31532C10.0249 8.31532 13.2209 7.05963 15.3992 5.68362L15.3021 7.7312C15.3021 7.7312 13.3124 9.36605 12.7951 10.2006L13.1928 10.8351L16.8441 7.93407C16.8441 7.93407 17.9273 5.96693 17.4072 4.89382L15.2022 3.09668Z" fill="#535461"/>
<path d="M47.2816 32.915C44.0757 45.6944 31.0523 53.4727 18.1923 50.2855C5.33223 47.0984 -2.48853 34.1532 0.71945 21.3724C3.92743 8.59164 16.9473 0.812639 29.8031 3.99909C42.6589 7.18554 50.4874 20.1321 47.2816 32.915Z" fill="#F1590E"/>
<path d="M34.5823 23.7442C35.0602 20.5697 32.6286 18.8635 29.3038 17.7281L30.3827 13.428L27.749 12.7753L26.6982 16.9586C26.0057 16.7872 25.2948 16.6256 24.5868 16.4647L25.6425 12.2499L23.0145 11.5986L21.9348 15.8974C21.3619 15.768 20.7989 15.6392 20.2534 15.5042V15.4909L16.6239 14.5871L15.9201 17.3853C15.9201 17.3853 17.8738 17.8302 17.833 17.8582C18.8993 18.1226 19.0921 18.8243 19.0605 19.3804L17.8316 24.2773C17.9247 24.3004 18.0162 24.3296 18.1054 24.3647C18.0174 24.343 17.9238 24.3192 17.8239 24.2948L16.1016 31.1573C15.9714 31.4791 15.6406 31.9625 14.8946 31.7792C14.9206 31.817 12.9802 31.3042 12.9802 31.3042L11.6831 34.3039L15.1065 35.1539C15.7441 35.3127 16.3691 35.4792 16.9842 35.6352L15.8947 39.9808L18.5256 40.6334L19.6052 36.3305C20.3238 36.5243 21.0213 36.7034 21.704 36.872L20.6286 41.1553L23.2622 41.808L24.3517 37.4687C28.8428 38.313 32.2196 37.9724 33.6421 33.9353C34.7872 30.6845 33.585 28.8097 31.2223 27.5868C32.9382 27.193 34.2368 26.0681 34.5823 23.7442ZM28.5655 32.1304C27.7518 35.3812 22.2452 33.624 20.4604 33.1797L21.9067 27.4176C23.6916 27.8639 29.4192 28.7404 28.5655 32.1304ZM29.3798 23.6966C28.6372 26.6536 24.054 25.151 22.5676 24.783L23.8788 19.5539C25.3659 19.9254 30.1533 20.613 29.3798 23.6966V23.6966Z" fill="white"/>
<path d="M18.9668 3.30371L19.0822 5.45832L19.4862 7.00923C19.4862 7.00923 19.8043 7.89835 20.0296 7.93333C20.2548 7.96831 20.2555 7.24357 20.0999 7.02811C19.9444 6.81265 20.019 5.37508 20.019 5.37508L20.2696 3.54575L18.9668 3.30371Z" fill="#FDA57D"/>
<path d="M18.8325 3.66482L18.8909 4.0146L20.5196 4.15451C20.5196 4.15451 20.8602 2.98696 20.2887 2.47559L18.8325 3.66482Z" fill="#F55F44"/>
<path d="M20.289 2.48057L19.6872 1.20389C19.6872 1.20389 18.5505 -0.803115 15.1934 3.13395L17.4076 4.89122L18.8405 3.85589L20.289 2.48057Z" fill="#F55F44"/>
<path d="M20.7632 0.723633L21.2986 1.45588L20.1298 2.30024C20.0483 2.35915 19.9465 2.38344 19.847 2.36779C19.7474 2.35213 19.6582 2.29781 19.5989 2.21677L19.5108 2.09623C19.4515 2.01519 19.4271 1.91407 19.4428 1.81511C19.4586 1.71616 19.5132 1.62747 19.5948 1.56857L20.7636 0.724199L20.7632 0.723633Z" fill="#FDA57D"/>
<path opacity="0.05" d="M20.1416 1.17258C20.0958 1.33675 20.0954 1.51017 20.1405 1.67455C20.1856 1.83892 20.2745 1.98814 20.3978 2.10648L20.9503 1.70704L20.4147 0.974609L20.1416 1.17258Z" fill="black"/>
<path d="M21.6835 2.16354C22.1152 1.85167 22.2114 1.25176 21.8983 0.823598C21.5852 0.395439 20.9815 0.301169 20.5498 0.61304C20.118 0.924911 20.0219 1.52483 20.335 1.95298C20.648 2.38114 21.2518 2.47541 21.6835 2.16354Z" fill="#FDA57D"/>
<path opacity="0.05" d="M20.6695 0.823519L20.1113 1.19428L20.1817 1.0138C20.1817 1.0138 20.6406 -0.175438 21.7104 0.337332C22.4416 0.687107 22.5803 1.61751 22.5247 1.72384C22.4422 1.81308 22.3474 1.89032 22.2432 1.95329C22.1059 2.05 21.9371 2.092 21.7702 2.07102C21.6033 2.05004 21.4503 1.96759 21.3416 1.83997C21.1544 1.61821 20.8278 1.1593 20.8876 0.896272C20.8327 0.796936 20.7609 0.756362 20.6687 0.826317L20.6695 0.823519Z" fill="black"/>
<path d="M20.7134 0.79227L20.1553 1.16303L20.2257 0.982547C20.2257 0.982547 20.6845 -0.206688 21.7543 0.306082C22.4856 0.655857 22.6242 1.58626 22.5686 1.69259C22.4861 1.78183 22.3913 1.85907 22.2871 1.92204C22.1498 2.01874 21.9811 2.06075 21.8141 2.03977C21.6472 2.01879 21.4943 1.93634 21.3855 1.80872C21.1983 1.58696 20.8718 1.12805 20.9316 0.865022C20.8767 0.765686 20.8049 0.725112 20.7127 0.795067L20.7134 0.79227Z" fill="#5A2F32"/>
<path d="M20.9017 0.853988C20.9977 0.784464 21.0473 0.689543 21.0124 0.641976C20.9776 0.594408 20.8715 0.612207 20.7754 0.681731C20.6794 0.751255 20.6298 0.846178 20.6647 0.893746C20.6995 0.941313 20.8056 0.923512 20.9017 0.853988Z" fill="#FDA57D"/>
<path opacity="0.05" d="M18.6533 3.82693L18.9088 3.60938L18.9116 3.95285L18.856 3.82064L18.6533 3.82693Z" fill="black"/>
<path opacity="0.05" d="M19.0034 4.03418L19.009 4.08735L20.1837 4.17829L20.1908 4.12862L19.0034 4.03418Z" fill="black"/>
<path d="M17.1777 2.49023L17.2932 4.64485L17.6971 6.19226C17.6971 6.19226 18.0153 7.08138 18.2405 7.11636C18.4657 7.15134 18.4664 6.42661 18.3109 6.21114C18.1553 5.99568 18.2285 4.5616 18.2285 4.5616L18.4833 2.73228L17.1777 2.49023Z" fill="#FDA57D"/>
<path d="M26.7601 18.9414H26.6377V19.0631H26.7601V18.9414Z" fill="#CCCCCC"/>
<path d="M26.5585 19.125H26.8611C26.8828 19.125 26.9043 19.1293 26.9244 19.1375C26.9445 19.1458 26.9627 19.1579 26.9781 19.1731C26.9934 19.1884 27.0056 19.2065 27.0139 19.2265C27.0222 19.2464 27.0265 19.2678 27.0265 19.2894V20.303H26.3931V19.2894C26.3931 19.2678 26.3973 19.2464 26.4057 19.2265C26.414 19.2065 26.4262 19.1884 26.4415 19.1731C26.4569 19.1579 26.4751 19.1458 26.4952 19.1375C26.5152 19.1293 26.5367 19.125 26.5585 19.125Z" fill="#535461"/>
<path d="M26.8837 19.0439H26.5156V19.1251H26.8837V19.0439Z" fill="#F7931A"/>
<path d="M27.0265 19.5918H26.3931V19.8352H27.0265V19.5918Z" fill="#F7931A"/>
<path d="M26.7611 18.9619V19.0228C26.7385 19.0228 26.7202 19.0088 26.7202 18.992C26.7202 18.9752 26.7385 18.9619 26.7611 18.9619Z" fill="#E6E6E6"/>
<path opacity="0.05" d="M17.3075 1.44238C17.3075 1.44238 17.0387 2.16362 17.1527 2.40986Z" fill="black"/>
<path opacity="0.05" d="M17.1838 2.45312L17.1831 2.58674L18.4732 2.8022L18.4887 2.69517L17.1838 2.45312Z" fill="black"/>
<path d="M17.4747 1.35479L17.1777 2.49086L18.4826 2.73291L18.8275 1.29883L17.4747 1.35479Z" fill="#F55F44"/>
<g opacity="0.5">
<path opacity="0.5" d="M17.4307 5.28906L17.6876 6.25584C17.6876 6.25584 18.0191 7.16526 18.2506 7.19954C18.4822 7.23381 18.4857 6.49509 18.321 6.27543C18.2344 6.16 18.2161 5.6997 18.2175 5.28906H17.4307Z" fill="url(#paint2_linear_130:1409)"/>
</g>
<path d="M17.4512 5.28906L17.6982 6.23555C17.6982 6.23555 18.0163 7.12468 18.2415 7.15966C18.4668 7.19464 18.4675 6.4699 18.3119 6.25444C18.2289 6.14111 18.2113 5.6906 18.2127 5.28906H17.4512Z" fill="#FDA57D"/>
<g opacity="0.5">
<path opacity="0.5" d="M20.0637 5.24902H19.0361L19.0502 5.50506L19.4781 7.10143C19.4781 7.10143 19.8153 8.01645 20.0531 8.05282C20.291 8.0892 20.2917 7.34278 20.1235 7.12172C19.9553 6.90066 20.0398 5.42251 20.0398 5.42251L20.0637 5.24902Z" fill="url(#paint3_linear_130:1409)"/>
</g>
<path d="M20.0406 5.24902H19.0693L19.0827 5.49806L19.4867 7.04896C19.4867 7.04896 19.8048 7.93809 20.03 7.97307C20.2553 8.00805 20.256 7.28331 20.1004 7.06785C19.9449 6.85239 20.0195 5.41482 20.0195 5.41482L20.0406 5.24902Z" fill="#FDA57D"/>
<path opacity="0.2" d="M26.7446 18.9582L28.5042 18.6084L28.5745 19.4479L26.7446 19.0281V18.9582Z" fill="#535461"/>
<g opacity="0.5">
<path opacity="0.5" d="M24.0903 19.217L24.1388 19.238L25.6872 19.9005L27.66 17.5745C27.66 17.5745 27.9591 17.2422 27.603 17.0148C27.2469 16.7875 27.0231 17.3758 27.0231 17.3758L25.5071 18.9946L24.2191 18.3545L24.2395 18.2202L23.0655 17.5458C23.0428 17.5033 23.0179 17.462 22.9909 17.422L22.9804 17.3842L22.922 17.3331C22.9107 17.3212 22.8994 17.31 22.8882 17.3002L23.0824 17.0904C23.227 17.1407 23.3809 17.1589 23.5332 17.1436C23.6856 17.1283 23.8327 17.0798 23.9642 17.0018C24.0957 16.9237 24.2083 16.8178 24.294 16.6917C24.3798 16.5656 24.4366 16.4223 24.4605 16.2719C24.5514 16.2891 24.6448 16.2891 24.7357 16.2719C24.8552 16.2469 24.9669 16.1936 25.0612 16.1165C25.1556 16.0394 25.2298 15.9408 25.2776 15.8291C25.2736 15.8366 25.2679 15.8431 25.2609 15.8481C25.254 15.8531 25.246 15.8564 25.2375 15.8578C25.2526 15.8316 25.266 15.8045 25.2776 15.7766C25.2375 15.8732 24.8624 15.7402 24.8061 15.7067C24.6343 15.6157 24.5457 15.4814 24.4542 15.3163C24.2789 14.9903 23.9552 14.87 23.5906 14.8413C23.312 14.8113 23.0302 14.8466 22.7678 14.9442C22.6371 14.9938 22.5181 15.0699 22.4184 15.1675C22.3188 15.2652 22.2405 15.3823 22.1886 15.5115C22.1572 15.6002 22.1429 15.6939 22.1464 15.7878C22.1404 15.8884 22.1572 15.989 22.1954 16.0824C22.2336 16.1757 22.2924 16.2593 22.3674 16.3272C22.3802 16.3381 22.3936 16.3484 22.4075 16.3579C22.4152 16.388 22.4237 16.4174 22.4342 16.4468L22.3828 16.5021L22.0492 16.8616L22.0323 16.8567L18.5182 17.3793V17.3863C18.4014 17.3093 17.8721 17.0421 16.551 17.4052C16.052 17.5451 15.2208 17.5276 14.3284 17.4457C13.7048 16.6748 13.3023 14.274 13.3023 14.274L13.1446 13.5947L11.0986 14.0648C11.0986 14.0648 12.0424 14.2747 12.2001 14.5349C12.4401 14.6147 12.5886 16.3964 12.6456 17.2373C11.4203 17.0491 10.4166 16.8336 10.4166 16.8336L9.68254 16.5727L9.1582 18.4013C9.1582 18.4013 9.73533 17.7717 10.2597 17.7221C10.2597 17.7221 12.8821 18.9757 14.8232 18.7147C15.5791 18.6133 16.3096 18.9309 16.9213 19.0281C17.4566 19.1168 17.9975 19.1692 18.54 19.1848L18.5464 19.7592C18.5464 19.7592 20.7064 19.6668 22.1252 19.2191C22.2329 19.5087 22.3195 19.7179 22.3498 19.7333L22.6074 19.6081L24.0544 21.3786L26.8858 20.2286C26.8858 20.2286 27.3081 20.0719 27.097 19.706C26.8858 19.3401 26.415 19.7585 26.415 19.7585L24.3169 20.4895L23.4315 19.2695L23.397 19.2219L23.5828 19.1317C23.5828 19.1317 23.5772 19.1044 23.5659 19.0575L24.0544 19.4451L24.0903 19.217Z" fill="url(#paint4_linear_130:1409)"/>
</g>
<path d="M22.3782 17.7215L21.73 17.1241L22.8033 15.9678L23.4515 16.5645L22.3782 17.7215Z" fill="#FDA57D"/>
<path opacity="0.05" d="M22.752 16.0186L22.2783 16.5292C22.3294 16.6727 22.4123 16.803 22.5209 16.9104C22.6294 17.0178 22.7608 17.0996 22.9054 17.1497L23.3981 16.616L22.752 16.0186Z" fill="black"/>
<path d="M22.8916 18.7224L25.4908 19.834L27.4115 17.5717C27.4115 17.5717 27.7022 17.2485 27.3559 17.0274C27.0096 16.8064 26.7928 17.3772 26.7928 17.3772L25.3148 18.9498L23.4181 18.0082L22.8916 18.7224Z" fill="#FDA57D"/>
<path d="M22.7549 17.4355L24.0816 18.1974L23.9028 19.3915L22.6528 18.4009L22.7549 17.4355Z" fill="#6C63FF"/>
<path d="M23.2905 17.1569C23.8542 17.1569 24.3111 16.7018 24.3111 16.1405C24.3111 15.5791 23.8542 15.124 23.2905 15.124C22.7269 15.124 22.27 15.5791 22.27 16.1405C22.27 16.7018 22.7269 17.1569 23.2905 17.1569Z" fill="#FDA57D"/>
<path d="M22.4518 17.0295L21.9415 16.877L18.521 17.3855L18.5463 19.694C18.5463 19.694 22.7045 19.5164 23.1633 18.4495L22.8572 17.3855L22.4518 17.0295Z" fill="#6C63FF"/>
<path opacity="0.05" d="M22.6929 18.4315L23.9027 19.3913L23.9541 18.9849L22.7548 17.8418L22.6929 18.4315Z" fill="black"/>
<path d="M18.5462 17.4092C18.5462 17.4092 18.0873 17.0028 16.6079 17.4092C15.1285 17.8157 10.6388 16.8496 10.6388 16.8496L10.4868 17.7143C10.4868 17.7143 13.0374 18.9336 14.9251 18.6796C15.6598 18.581 16.3707 18.8895 16.9661 18.9846C17.4887 19.0705 18.0167 19.1202 18.5462 19.1336V17.4092Z" fill="#4D8AF0"/>
<path d="M10.6389 16.8506L9.92384 16.5967L9.41357 18.3749C9.41357 18.3749 9.97662 17.7649 10.4848 17.7146L10.6389 16.8506Z" fill="#535461"/>
<path d="M12.373 14.6153L13.4428 14.3613C13.4428 14.3613 13.9531 17.41 14.7181 17.6639H12.8326C12.8326 17.6639 12.6792 14.7167 12.373 14.6153Z" fill="#4D8AF0"/>
<path d="M13.4427 14.3615L13.29 13.7012L11.3003 14.1587C11.3003 14.1587 12.2152 14.3622 12.3715 14.6162L13.4427 14.3615Z" fill="#535461"/>
<path opacity="0.05" d="M23.4529 14.9652C23.182 14.936 22.9079 14.9703 22.6527 15.0652C22.5256 15.1136 22.4099 15.1876 22.313 15.2826C22.2161 15.3776 22.14 15.4915 22.0896 15.6172C21.9981 15.8718 22.0572 16.1845 22.2642 16.3594C22.3133 16.4054 22.3764 16.434 22.4436 16.4405C22.552 16.4447 22.6428 16.3657 22.7252 16.2971C22.8815 16.1688 23.0537 16.0609 23.2375 15.976C23.3938 15.9061 23.5845 15.8501 23.7302 15.9389C23.7961 15.9876 23.8559 16.044 23.9083 16.1068C23.9926 16.1901 24.0963 16.2515 24.2102 16.2856C24.324 16.3196 24.4446 16.3253 24.5612 16.3021C24.6777 16.2788 24.7868 16.2274 24.8786 16.1524C24.9705 16.0773 25.0424 15.981 25.0879 15.8718C25.0485 15.9662 24.6839 15.8361 24.629 15.8074C24.4615 15.7193 24.3756 15.5885 24.2897 15.4283C24.1222 15.11 23.8069 14.9931 23.4529 14.9652Z" fill="black"/>
<path d="M23.4529 14.9144C23.182 14.8852 22.9079 14.9195 22.6527 15.0144C22.5256 15.0628 22.4099 15.1368 22.313 15.2318C22.2161 15.3268 22.14 15.4407 22.0896 15.5664C21.9981 15.821 22.0572 16.1337 22.2642 16.3086C22.3133 16.3546 22.3764 16.3832 22.4436 16.3897C22.552 16.3939 22.6428 16.3149 22.7252 16.2463C22.8815 16.1181 23.0537 16.0101 23.2375 15.9252C23.3938 15.8553 23.5845 15.7993 23.7302 15.8882C23.7961 15.9368 23.8559 15.9932 23.9083 16.056C23.9926 16.1394 24.0963 16.2007 24.2102 16.2348C24.324 16.2688 24.4446 16.2745 24.5612 16.2513C24.6777 16.228 24.7868 16.1766 24.8786 16.1016C24.9705 16.0265 25.0424 15.9302 25.0879 15.821C25.0485 15.9154 24.6839 15.7853 24.629 15.7566C24.4615 15.6685 24.3756 15.5377 24.2897 15.3775C24.1222 15.0592 23.8069 14.9417 23.4529 14.9144Z" fill="black"/>
<path d="M23.0338 16.0558C23.0534 15.9738 23.0358 15.8995 22.9946 15.8898C22.9534 15.8801 22.9041 15.9386 22.8845 16.0206C22.865 16.1025 22.8825 16.1768 22.9238 16.1866C22.965 16.1963 23.0143 16.1377 23.0338 16.0558Z" fill="#FDA57D"/>
<path opacity="0.05" d="M22.4951 19.5491L22.5296 19.591L23.2968 19.221L23.263 19.1748L22.4951 19.5491Z" fill="black"/>
<path opacity="0.05" d="M24.0618 18.3281L23.9365 19.1627L23.983 19.1893L24.0815 18.3372L24.0618 18.3281Z" fill="black"/>
<path d="M20.0254 16.1904H19.4131V20.3059H20.0254V16.1904Z" fill="#E0E0E0"/>
<path d="M18.8685 4.86276L18.2881 4.66895L16.9695 8.57013L17.5499 8.76395L18.8685 4.86276Z" fill="#E0E0E0"/>
<path d="M19.8213 16.6478H19.6172V6.70996L19.8185 6.72045L19.8213 16.6478Z" fill="#E0E0E0"/>
<path d="M22.1172 19.0866L23.9028 21.2713L26.6575 20.1521C26.6575 20.1521 27.0657 19.9996 26.8616 19.6442C26.6575 19.2888 26.1986 19.6952 26.1986 19.6952L24.1575 20.4067L22.916 18.6963L22.1172 19.0866Z" fill="#FDA57D"/>
<path d="M21.3774 17.2835C21.3774 17.2835 22.1425 19.6207 22.2445 19.6711L23.441 19.0869C23.441 19.0869 23.1011 17.5109 22.7224 17.2681C22.3438 17.0254 21.4288 17.0799 21.3774 17.2835Z" fill="#6C63FF"/>
<path opacity="0.05" d="M21.5956 17.9385C21.5956 17.9385 21.5554 18.8325 21.8109 18.9878Z" fill="black"/>
<path d="M19.6188 6.72038L18.6982 5.36815L18.7947 5.08203L19.8187 6.72038H19.6188Z" fill="#E0E0E0"/>
<path d="M24.2976 16.5098L24.1646 16.4219L23.9414 16.7557L24.0745 16.8436L24.2976 16.5098Z" fill="black"/>
<path d="M24.1109 16.4946L23.1245 15.8428L23.0801 15.9092L24.0665 16.561L24.1109 16.4946Z" fill="black"/>
<g opacity="0.7">
<path opacity="0.7" d="M42.5284 42.9453H39.9722V44.8229H42.5284V42.9453Z" fill="url(#paint5_linear_130:1409)"/>
<g opacity="0.1">
<path opacity="0.1" d="M39.9722 43.443C39.9722 43.443 40.9258 43.5536 41.2503 43.5536C41.5747 43.5536 42.5284 43.443 42.5284 43.443V42.9736H39.9722V43.443Z" fill="url(#paint6_linear_130:1409)"/>
</g>
<path opacity="0.7" d="M42.5284 43.4146C42.5284 43.4146 41.5747 43.5252 41.2503 43.5252C40.9258 43.5252 39.9722 43.4146 39.9722 43.4146V41.5643C39.9722 41.2274 40.1068 40.9043 40.3465 40.666C40.5862 40.4278 40.9113 40.2939 41.2503 40.2939C41.5893 40.2939 41.9144 40.4278 42.1541 40.666C42.3938 40.9043 42.5284 41.2274 42.5284 41.5643V43.4146Z" fill="url(#paint7_linear_130:1409)"/>
<path opacity="0.7" d="M41.2503 40.6532C41.1693 40.6532 41.0916 40.6213 41.0343 40.5643C40.977 40.5074 40.9448 40.4302 40.9448 40.3496V39.6592H41.5557V40.3496C41.5557 40.4302 41.5235 40.5074 41.4663 40.5643C41.409 40.6213 41.3313 40.6532 41.2503 40.6532V40.6532Z" fill="url(#paint8_linear_130:1409)"/>
<path opacity="0.7" d="M40.8892 44.1602H39.9722V50.3463H40.8892V44.1602Z" fill="url(#paint9_linear_130:1409)"/>
<path opacity="0.7" d="M42.5284 44.1602H41.6113V50.3463H42.5284V44.1602Z" fill="url(#paint10_linear_130:1409)"/>
<g opacity="0.1">
<path opacity="0.1" d="M40.9448 40.1202C41.1455 40.1693 41.3551 40.1693 41.5557 40.1202V39.6865H40.9448V40.1202Z" fill="url(#paint11_linear_130:1409)"/>
</g>
<path opacity="0.7" d="M41.2502 39.8798C41.9868 39.8798 42.5839 39.2863 42.5839 38.5542C42.5839 37.822 41.9868 37.2285 41.2502 37.2285C40.5136 37.2285 39.9165 37.822 39.9165 38.5542C39.9165 39.2863 40.5136 39.8798 41.2502 39.8798Z" fill="url(#paint12_linear_130:1409)"/>
<path opacity="0.7" d="M41.2503 40.1287C41.9562 40.1287 42.5284 39.5599 42.5284 38.8583C42.5284 38.1567 41.9562 37.5879 41.2503 37.5879C40.5444 37.5879 39.9722 38.1567 39.9722 38.8583C39.9722 39.5599 40.5444 40.1287 41.2503 40.1287Z" fill="url(#paint13_linear_130:1409)"/>
<g opacity="0.1">
<path opacity="0.1" d="M40.476 38.2215C40.5458 38.2598 40.6226 38.2836 40.7019 38.2914C41.0293 38.3358 41.3626 38.2986 41.6718 38.183C41.7008 38.2454 41.7431 38.3007 41.7959 38.345C41.8487 38.3894 41.9106 38.4217 41.9772 38.4397C42.1108 38.4749 42.2488 38.4902 42.3869 38.4852C42.4172 38.4885 42.4479 38.4827 42.4748 38.4684C42.5361 38.4272 42.5065 38.3327 42.4706 38.2684L42.2925 37.9473C42.2452 37.8495 42.1814 37.7606 42.1039 37.6842C41.9962 37.5998 41.8681 37.545 41.7323 37.5254C41.4162 37.4629 41.0899 37.4737 40.7787 37.5569C40.4472 37.6444 40.0199 37.9473 40.476 38.2215Z" fill="url(#paint14_linear_130:1409)"/>
</g>
<path opacity="0.7" d="M40.476 38.1942C40.5458 38.2325 40.6226 38.2563 40.7019 38.2641C41.0293 38.3085 41.3626 38.2712 41.6718 38.1557C41.7008 38.218 41.7431 38.2733 41.7959 38.3177C41.8487 38.362 41.9106 38.3944 41.9772 38.4124C42.1108 38.4475 42.2488 38.4629 42.3869 38.4579C42.4172 38.4612 42.4479 38.4554 42.4748 38.4411C42.5361 38.3998 42.5065 38.3054 42.4706 38.241L42.2925 37.9199C42.2452 37.8222 42.1814 37.7332 42.1039 37.6569C41.9962 37.5725 41.8681 37.5177 41.7323 37.4981C41.4162 37.4355 41.0899 37.4463 40.7787 37.5296C40.4472 37.617 40.0199 37.9192 40.476 38.1942Z" fill="url(#paint15_linear_130:1409)"/>
<path opacity="0.7" d="M42.5145 39.0655C42.5759 39.0655 42.6257 38.9728 42.6257 38.8584C42.6257 38.7441 42.5759 38.6514 42.5145 38.6514C42.4531 38.6514 42.4033 38.7441 42.4033 38.8584C42.4033 38.9728 42.4531 39.0655 42.5145 39.0655Z" fill="url(#paint16_linear_130:1409)"/>
<path opacity="0.7" d="M39.9862 39.0655C40.0476 39.0655 40.0974 38.9728 40.0974 38.8584C40.0974 38.7441 40.0476 38.6514 39.9862 38.6514C39.9248 38.6514 39.875 38.7441 39.875 38.8584C39.875 38.9728 39.9248 39.0655 39.9862 39.0655Z" fill="url(#paint17_linear_130:1409)"/>
<path opacity="0.7" d="M44.6678 37.533C44.8365 37.533 44.9732 37.3971 44.9732 37.2294C44.9732 37.0617 44.8365 36.9258 44.6678 36.9258C44.4991 36.9258 44.3623 37.0617 44.3623 37.2294C44.3623 37.3971 44.4991 37.533 44.6678 37.533Z" fill="url(#paint18_linear_130:1409)"/>
<path opacity="0.7" d="M47.2016 48.8907C47.2016 49.6248 47.1227 50.2602 46.9648 50.7969C46.807 51.3337 46.5919 51.7777 46.3196 52.1289C46.0472 52.4802 45.7276 52.7426 45.3605 52.9163C44.9974 53.086 44.6087 53.1708 44.1943 53.1708C43.7799 53.1708 43.3911 53.086 43.028 52.9163C42.6649 52.7426 42.3472 52.4802 42.0749 52.1289C41.8026 51.7777 41.5875 51.3337 41.4296 50.7969C41.2757 50.2602 41.1988 49.6248 41.1988 48.8907C41.1988 48.1566 41.2757 47.5212 41.4296 46.9844C41.5875 46.4477 41.8026 46.0037 42.0749 45.6524C42.3472 45.3012 42.6649 45.0407 43.028 44.871C43.3911 44.6973 43.7799 44.6105 44.1943 44.6105C44.6087 44.6105 44.9974 44.6973 45.3605 44.871C45.7276 45.0407 46.0472 45.3012 46.3196 45.6524C46.5919 46.0037 46.807 46.4477 46.9648 46.9844C47.1227 47.5212 47.2016 48.1566 47.2016 48.8907ZM46.6096 48.8907C46.6096 48.2118 46.5445 47.6317 46.4143 47.1502C46.284 46.6687 46.1084 46.276 45.8874 45.9721C45.6703 45.6643 45.4138 45.4393 45.1178 45.2972C44.8257 45.1552 44.5179 45.0841 44.1943 45.0841C43.8707 45.0841 43.5628 45.1552 43.2708 45.2972C42.9787 45.4393 42.7222 45.6643 42.5012 45.9721C42.2801 46.276 42.1045 46.6687 41.9743 47.1502C41.844 47.6317 41.7789 48.2118 41.7789 48.8907C41.7789 49.5734 41.844 50.1556 41.9743 50.6371C42.1045 51.1146 42.2801 51.5073 42.5012 51.8152C42.7222 52.119 42.9787 52.342 43.2708 52.4841C43.5628 52.6222 43.8707 52.6913 44.1943 52.6913C44.5179 52.6913 44.8257 52.6222 45.1178 52.4841C45.4138 52.342 45.6703 52.119 45.8874 51.8152C46.1084 51.5073 46.284 51.1146 46.4143 50.6371C46.5445 50.1556 46.6096 49.5734 46.6096 48.8907ZM47.2016 62.8907C47.2016 63.6248 47.1227 64.2602 46.9648 64.7969C46.807 65.3337 46.5919 65.7777 46.3196 66.1289C46.0472 66.4802 45.7276 66.7426 45.3605 66.9163C44.9974 67.086 44.6087 67.1708 44.1943 67.1708C43.7799 67.1708 43.3911 67.086 43.028 66.9163C42.6649 66.7426 42.3472 66.4802 42.0749 66.1289C41.8026 65.7777 41.5875 65.3337 41.4296 64.7969C41.2757 64.2602 41.1988 63.6248 41.1988 62.8907C41.1988 62.1566 41.2757 61.5212 41.4296 60.9844C41.5875 60.4477 41.8026 60.0037 42.0749 59.6524C42.3472 59.3012 42.6649 59.0407 43.028 58.871C43.3911 58.6973 43.7799 58.6105 44.1943 58.6105C44.6087 58.6105 44.9974 58.6973 45.3605 58.871C45.7276 59.0407 46.0472 59.3012 46.3196 59.6524C46.5919 60.0037 46.807 60.4477 46.9648 60.9844C47.1227 61.5212 47.2016 62.1566 47.2016 62.8907ZM46.6096 62.8907C46.6096 62.2118 46.5445 61.6317 46.4143 61.1502C46.284 60.6687 46.1084 60.276 45.8874 59.9721C45.6703 59.6643 45.4138 59.4393 45.1178 59.2972C44.8257 59.1552 44.5179 59.0841 44.1943 59.0841C43.8707 59.0841 43.5628 59.1552 43.2708 59.2972C42.9787 59.4393 42.7222 59.6643 42.5012 59.9721C42.2801 60.276 42.1045 60.6687 41.9743 61.1502C41.844 61.6317 41.7789 62.2118 41.7789 62.8907C41.7789 63.5734 41.844 64.1556 41.9743 64.6371C42.1045 65.1146 42.2801 65.5073 42.5012 65.8152C42.7222 66.119 42.9787 66.342 43.2708 66.4841C43.5628 66.6222 43.8707 66.6913 44.1943 66.6913C44.5179 66.6913 44.8257 66.6222 45.1178 66.4841C45.4138 66.342 45.6703 66.119 45.8874 65.8152C46.1084 65.5073 46.284 65.1146 46.4143 64.6371C46.5445 64.1556 46.6096 63.5734 46.6096 62.8907Z" fill="black"/>
<path opacity="0.7" d="M41.2786 39.3554C41.2786 39.3554 40.5565 39.6037 40.0005 39.0518C40.0005 39.0518 40.0455 39.235 40.123 39.4554C40.2482 39.6914 40.445 39.8822 40.6854 40.0007C40.9259 40.1193 41.1978 40.1596 41.4626 40.116C41.7274 40.0723 41.9716 39.9469 42.1607 39.7575C42.3498 39.5681 42.474 39.3244 42.5159 39.0609C42.3822 39.1322 41.4327 39.5862 41.2786 39.3554ZM41.2512 39.687C41.1104 39.687 41.0013 39.582 41.0013 39.5212C41.0013 39.4603 41.1132 39.4659 41.2512 39.4659C41.3891 39.4659 41.501 39.4603 41.501 39.5212C41.501 39.582 41.3884 39.687 41.2505 39.687H41.2512Z" fill="url(#paint19_linear_130:1409)"/>
<path opacity="0.7" d="M41.9297 40.4894C41.9297 40.4894 43.4175 39.6597 44.3346 37.2295L44.7794 37.5058C44.7794 37.5058 44.0432 40.6027 42.1957 41.317L41.9297 40.4894Z" fill="url(#paint20_linear_130:1409)"/>
<path opacity="0.7" d="M37.8333 37.533C38.002 37.533 38.1387 37.3971 38.1387 37.2294C38.1387 37.0617 38.002 36.9258 37.8333 36.9258C37.6646 36.9258 37.5278 37.0617 37.5278 37.2294C37.5278 37.3971 37.6646 37.533 37.8333 37.533Z" fill="url(#paint21_linear_130:1409)"/>
<path opacity="0.7" d="M40.571 40.4894C40.571 40.4894 39.0832 39.6597 38.1661 37.2295L37.7241 37.5051C37.7241 37.5051 38.4603 40.602 40.3078 41.3163L40.571 40.4894Z" fill="url(#paint22_linear_130:1409)"/>
<path opacity="0.7" d="M40.8337 50.5674H40.0278V50.5261C40.0278 50.42 40.0702 50.3182 40.1457 50.2432C40.2212 50.1681 40.3236 50.126 40.4304 50.126V50.126C40.5372 50.126 40.6396 50.1681 40.7151 50.2432C40.7906 50.3182 40.833 50.42 40.833 50.5261L40.8337 50.5674Z" fill="url(#paint23_linear_130:1409)"/>
<path opacity="0.7" d="M42.4728 50.5674H41.6655V50.5261C41.6655 50.42 41.7079 50.3182 41.7834 50.2432C41.8589 50.1681 41.9613 50.126 42.0681 50.126V50.126C42.1749 50.126 42.2773 50.1681 42.3528 50.2432C42.4283 50.3182 42.4707 50.42 42.4707 50.5261L42.4728 50.5674Z" fill="url(#paint24_linear_130:1409)"/>
</g>
<path d="M42.4921 42.9688H40.0098V44.7925H42.4921V42.9688Z" fill="#4D8AF0"/>
<path opacity="0.1" d="M40.0098 43.4515C40.0098 43.4515 40.936 43.5585 41.2506 43.5585C41.5652 43.5585 42.4914 43.4515 42.4914 43.4515V42.9961H40.0098V43.4515Z" fill="black"/>
<path d="M42.4914 43.4243C42.4914 43.4243 41.5652 43.5313 41.2506 43.5313C40.936 43.5313 40.0098 43.4243 40.0098 43.4243V41.6278C40.0098 41.3007 40.1405 40.987 40.3732 40.7558C40.6059 40.5245 40.9215 40.3945 41.2506 40.3945C41.5797 40.3945 41.8953 40.5245 42.128 40.7558C42.3607 40.987 42.4914 41.3007 42.4914 41.6278V43.4243Z" fill="#6C63FF"/>
<path d="M40.9533 39.7773H41.5467V40.4475C41.5467 40.5258 41.5154 40.6009 41.4597 40.6563C41.404 40.7116 41.3284 40.7427 41.2496 40.7427V40.7427C41.1709 40.7427 41.0953 40.7116 41.0396 40.6563C40.9839 40.6009 40.9526 40.5258 40.9526 40.4475V39.7773H40.9533Z" fill="#FDB797"/>
<path d="M40.9001 44.1484H40.0098V50.1548H40.9001V44.1484Z" fill="#4D8AF0"/>
<path d="M42.4914 44.1484H41.6011V50.1548H42.4914V44.1484Z" fill="#4D8AF0"/>
<path opacity="0.1" d="M40.9541 40.2244C41.149 40.2721 41.3525 40.2721 41.5474 40.2244V39.8047H40.9541V40.2244Z" fill="black"/>
<path d="M41.2506 39.9923C41.9658 39.9923 42.5456 39.416 42.5456 38.7051C42.5456 37.9943 41.9658 37.418 41.2506 37.418C40.5354 37.418 39.9556 37.9943 39.9556 38.7051C39.9556 39.416 40.5354 39.9923 41.2506 39.9923Z" fill="#814E4D"/>
<path d="M41.2506 40.2332C41.9359 40.2332 42.4914 39.681 42.4914 38.9999C42.4914 38.3188 41.9359 37.7666 41.2506 37.7666C40.5653 37.7666 40.0098 38.3188 40.0098 38.9999C40.0098 39.681 40.5653 40.2332 41.2506 40.2332Z" fill="#FDB797"/>
<path opacity="0.1" d="M40.4986 38.3813C40.5666 38.4178 40.6413 38.4402 40.7182 38.4471C41.036 38.4903 41.3596 38.4542 41.6599 38.3422C41.6881 38.4028 41.7293 38.4566 41.7806 38.4997C41.8319 38.5429 41.8921 38.5743 41.9569 38.5919C42.0866 38.626 42.2206 38.6408 42.3546 38.636C42.3842 38.6394 42.4141 38.6338 42.4404 38.6199C42.5003 38.58 42.4714 38.4884 42.4362 38.4254L42.2631 38.1141C42.2172 38.0193 42.1553 37.9329 42.0801 37.8588C41.9754 37.7768 41.8509 37.7238 41.719 37.7049C41.412 37.6442 41.0951 37.6547 40.7928 37.7356C40.4691 37.821 40.0552 38.1148 40.4986 38.3813Z" fill="black"/>
<path d="M40.4986 38.355C40.5666 38.3915 40.6413 38.4138 40.7182 38.4207C41.036 38.4639 41.3596 38.4279 41.6599 38.3158C41.6881 38.3764 41.7293 38.4302 41.7806 38.4734C41.8319 38.5165 41.8921 38.548 41.9569 38.5655C42.0866 38.5996 42.2206 38.6144 42.3546 38.6096C42.3842 38.613 42.4141 38.6074 42.4404 38.5935C42.5003 38.5536 42.4714 38.462 42.4362 38.399L42.2631 38.0877C42.2172 37.9929 42.1553 37.9065 42.0801 37.8324C41.9754 37.7505 41.8509 37.6974 41.719 37.6785C41.412 37.6178 41.0951 37.6283 40.7928 37.7093C40.4691 37.7946 40.0552 38.0884 40.4986 38.355Z" fill="#814E4D"/>
<path d="M42.4778 39.2004C42.5373 39.2004 42.5855 39.1105 42.5855 38.9996C42.5855 38.8887 42.5373 38.7988 42.4778 38.7988C42.4183 38.7988 42.3701 38.8887 42.3701 38.9996C42.3701 39.1105 42.4183 39.2004 42.4778 39.2004Z" fill="#FDB797"/>
<path d="M40.0232 39.2004C40.0827 39.2004 40.1309 39.1105 40.1309 38.9996C40.1309 38.8887 40.0827 38.7988 40.0232 38.7988C39.9637 38.7988 39.9155 38.8887 39.9155 38.9996C39.9155 39.1105 39.9637 39.2004 40.0232 39.2004Z" fill="#FDB797"/>
<path d="M44.569 37.7135C44.733 37.7135 44.866 37.5813 44.866 37.4183C44.866 37.2552 44.733 37.123 44.569 37.123C44.4049 37.123 44.272 37.2552 44.272 37.4183C44.272 37.5813 44.4049 37.7135 44.569 37.7135Z" fill="#FDB797"/>
<path d="M41.2779 39.4827C41.2779 39.4827 40.5741 39.724 40.0371 39.1875C40.0371 39.1875 40.0807 39.3652 40.1561 39.5799C40.2778 39.8088 40.4688 39.9938 40.7022 40.1088C40.9356 40.2237 41.1994 40.2627 41.4564 40.2203C41.7133 40.1779 41.9503 40.0562 42.1338 39.8725C42.3172 39.6887 42.4379 39.4523 42.4786 39.1966C42.3498 39.2665 41.4278 39.7066 41.2779 39.4827ZM41.2512 39.8045C41.1168 39.8045 41.0084 39.7031 41.0084 39.6436C41.0084 39.5841 41.1168 39.5897 41.2512 39.5897C41.3856 39.5897 41.494 39.5841 41.494 39.6436C41.494 39.7031 41.3842 39.8045 41.2505 39.8045H41.2512Z" fill="#814E4D"/>
<path d="M41.9102 40.5834C41.9102 40.5834 43.3551 39.7776 44.2454 37.418L44.6768 37.6859C44.6768 37.6859 43.9618 40.694 42.1678 41.3865L41.9102 40.5834Z" fill="#6C63FF"/>
<path d="M37.9318 37.7135C38.0958 37.7135 38.2288 37.5813 38.2288 37.4183C38.2288 37.2552 38.0958 37.123 37.9318 37.123C37.7677 37.123 37.6348 37.2552 37.6348 37.4183C37.6348 37.5813 37.7677 37.7135 37.9318 37.7135Z" fill="#FDB797"/>
<path d="M40.5909 40.5834C40.5909 40.5834 39.146 39.7776 38.2557 37.418L37.8242 37.6859C37.8242 37.6859 38.5393 40.694 40.3333 41.3865L40.5909 40.5834Z" fill="#6C63FF"/>
<path d="M40.4546 49.9404C40.5584 49.9404 40.6579 49.9814 40.7313 50.0543C40.8047 50.1273 40.8459 50.2262 40.8459 50.3294V50.3672H40.064V50.3273C40.0645 50.2246 40.1059 50.1263 40.1791 50.0539C40.2522 49.9814 40.3513 49.9406 40.4546 49.9404V49.9404Z" fill="#333333"/>
<path d="M42.0466 49.9404C42.1504 49.9404 42.2499 49.9814 42.3233 50.0543C42.3967 50.1273 42.4379 50.2262 42.4379 50.3294V50.3672H41.6553V50.3273C41.6558 50.2245 41.6973 50.1261 41.7706 50.0536C41.844 49.9811 41.9432 49.9404 42.0466 49.9404V49.9404Z" fill="#333333"/>
</g>
<defs>
<linearGradient id="paint0_linear_130:1409" x1="9.3696" y1="9.54287" x2="9.3696" y2="7.87305" gradientUnits="userSpaceOnUse">
<stop stop-color="#808080" stop-opacity="0.25"/>
<stop offset="0.54" stop-color="#808080" stop-opacity="0.12"/>
<stop offset="1" stop-color="#808080" stop-opacity="0.1"/>
</linearGradient>
<linearGradient id="paint1_linear_130:1409" x1="6447.21" y1="3193.35" x2="6447.21" y2="1047.34" gradientUnits="userSpaceOnUse">
<stop stop-color="#808080" stop-opacity="0.25"/>
<stop offset="0.54" stop-color="#808080" stop-opacity="0.12"/>
<stop offset="1" stop-color="#808080" stop-opacity="0.1"/>
</linearGradient>
<linearGradient id="paint2_linear_130:1409" x1="533.841" y1="365.459" x2="533.841" y2="313.233" gradientUnits="userSpaceOnUse">
<stop stop-color="#808080" stop-opacity="0.25"/>
<stop offset="0.54" stop-color="#808080" stop-opacity="0.12"/>
<stop offset="1" stop-color="#808080" stop-opacity="0.1"/>
</linearGradient>
<linearGradient id="paint3_linear_130:1409" x1="667.727" y1="567.977" x2="667.727" y2="455.521" gradientUnits="userSpaceOnUse">
<stop stop-color="#808080" stop-opacity="0.25"/>
<stop offset="0.54" stop-color="#808080" stop-opacity="0.12"/>
<stop offset="1" stop-color="#808080" stop-opacity="0.1"/>
</linearGradient>
<linearGradient id="paint4_linear_130:1409" x1="9717.66" y1="3057.64" x2="9717.66" y2="2191.61" gradientUnits="userSpaceOnUse">
<stop stop-color="#808080" stop-opacity="0.25"/>
<stop offset="0.54" stop-color="#808080" stop-opacity="0.12"/>
<stop offset="1" stop-color="#808080" stop-opacity="0.1"/>
</linearGradient>
<linearGradient id="paint5_linear_130:1409" x1="1491.77" y1="1220.79" x2="1584.61" y2="1220.79" gradientUnits="userSpaceOnUse">
<stop stop-color="#808080" stop-opacity="0.25"/>
<stop offset="0.54" stop-color="#808080" stop-opacity="0.12"/>
<stop offset="1" stop-color="#808080" stop-opacity="0.1"/>
</linearGradient>
<linearGradient id="paint6_linear_130:1409" x1="2153.84" y1="451.195" x2="2246.68" y2="451.195" gradientUnits="userSpaceOnUse">
<stop stop-color="#808080" stop-opacity="0.25"/>
<stop offset="0.54" stop-color="#808080" stop-opacity="0.12"/>
<stop offset="1" stop-color="#808080" stop-opacity="0.1"/>
</linearGradient>
<linearGradient id="paint7_linear_130:1409" x1="2153.84" y1="2252.33" x2="2246.68" y2="2252.33" gradientUnits="userSpaceOnUse">
<stop stop-color="#808080" stop-opacity="0.25"/>
<stop offset="0.54" stop-color="#808080" stop-opacity="0.12"/>
<stop offset="1" stop-color="#808080" stop-opacity="0.1"/>
</linearGradient>
<linearGradient id="paint8_linear_130:1409" x1="554.572" y1="695.252" x2="559.875" y2="695.252" gradientUnits="userSpaceOnUse">
<stop stop-color="#808080" stop-opacity="0.25"/>
<stop offset="0.54" stop-color="#808080" stop-opacity="0.12"/>
<stop offset="1" stop-color="#808080" stop-opacity="0.1"/>
</linearGradient>
<linearGradient id="paint9_linear_130:1409" x1="560.808" y1="4222.77" x2="572.757" y2="4222.77" gradientUnits="userSpaceOnUse">
<stop stop-color="#808080" stop-opacity="0.25"/>
<stop offset="0.54" stop-color="#808080" stop-opacity="0.12"/>
<stop offset="1" stop-color="#808080" stop-opacity="0.1"/>
</linearGradient>
<linearGradient id="paint10_linear_130:1409" x1="583.81" y1="4222.77" x2="595.759" y2="4222.77" gradientUnits="userSpaceOnUse">
<stop stop-color="#808080" stop-opacity="0.25"/>
<stop offset="0.54" stop-color="#808080" stop-opacity="0.12"/>
<stop offset="1" stop-color="#808080" stop-opacity="0.1"/>
</linearGradient>
<linearGradient id="paint11_linear_130:1409" x1="554.572" y1="348.415" x2="559.875" y2="348.415" gradientUnits="userSpaceOnUse">
<stop stop-color="#808080" stop-opacity="0.25"/>
<stop offset="0.54" stop-color="#808080" stop-opacity="0.12"/>
<stop offset="1" stop-color="#808080" stop-opacity="0.1"/>
</linearGradient>
<linearGradient id="paint12_linear_130:1409" x1="1552.76" y1="1498.44" x2="1653.85" y2="1498.44" gradientUnits="userSpaceOnUse">
<stop stop-color="#808080" stop-opacity="0.25"/>
<stop offset="0.54" stop-color="#808080" stop-opacity="0.12"/>
<stop offset="1" stop-color="#808080" stop-opacity="0.1"/>
</linearGradient>
<linearGradient id="paint13_linear_130:1409" x1="1491.77" y1="1448.93" x2="1584.61" y2="1448.93" gradientUnits="userSpaceOnUse">
<stop stop-color="#808080" stop-opacity="0.25"/>
<stop offset="0.54" stop-color="#808080" stop-opacity="0.12"/>
<stop offset="1" stop-color="#808080" stop-opacity="0.1"/>
</linearGradient>
<linearGradient id="paint14_linear_130:1409" x1="1896.4" y1="666.424" x2="1967.25" y2="666.424" gradientUnits="userSpaceOnUse">
<stop stop-color="#808080" stop-opacity="0.25"/>
<stop offset="0.54" stop-color="#808080" stop-opacity="0.12"/>
<stop offset="1" stop-color="#808080" stop-opacity="0.1"/>
</linearGradient>
<linearGradient id="paint15_linear_130:1409" x1="1896.4" y1="666.006" x2="1967.25" y2="666.006" gradientUnits="userSpaceOnUse">
<stop stop-color="#808080" stop-opacity="0.25"/>
<stop offset="0.54" stop-color="#808080" stop-opacity="0.12"/>
<stop offset="1" stop-color="#808080" stop-opacity="0.1"/>
</linearGradient>
<linearGradient id="paint16_linear_130:1409" x1="176.398" y1="268.693" x2="177.1" y2="268.693" gradientUnits="userSpaceOnUse">
<stop stop-color="#808080" stop-opacity="0.25"/>
<stop offset="0.54" stop-color="#808080" stop-opacity="0.12"/>
<stop offset="1" stop-color="#808080" stop-opacity="0.1"/>
</linearGradient>
<linearGradient id="paint17_linear_130:1409" x1="165.88" y1="268.693" x2="166.583" y2="268.693" gradientUnits="userSpaceOnUse">
<stop stop-color="#808080" stop-opacity="0.25"/>
<stop offset="0.54" stop-color="#808080" stop-opacity="0.12"/>
<stop offset="1" stop-color="#808080" stop-opacity="0.1"/>
</linearGradient>
<linearGradient id="paint18_linear_130:1409" x1="429.424" y1="360.078" x2="434.733" y2="360.078" gradientUnits="userSpaceOnUse">
<stop stop-color="#808080" stop-opacity="0.25"/>
<stop offset="0.54" stop-color="#808080" stop-opacity="0.12"/>
<stop offset="1" stop-color="#808080" stop-opacity="0.1"/>
</linearGradient>
<linearGradient id="paint19_linear_130:1409" x1="2121.11" y1="743.446" x2="2210.89" y2="743.446" gradientUnits="userSpaceOnUse">
<stop stop-color="#808080" stop-opacity="0.25"/>
<stop offset="0.54" stop-color="#808080" stop-opacity="0.12"/>
<stop offset="1" stop-color="#808080" stop-opacity="0.1"/>
</linearGradient>
<linearGradient id="paint20_linear_130:1409" x1="2477.74" y1="2681.33" x2="2593.13" y2="2681.33" gradientUnits="userSpaceOnUse">
<stop stop-color="#808080" stop-opacity="0.25"/>
<stop offset="0.54" stop-color="#808080" stop-opacity="0.12"/>
<stop offset="1" stop-color="#808080" stop-opacity="0.1"/>
</linearGradient>
<linearGradient id="paint21_linear_130:1409" x1="363.264" y1="360.078" x2="368.573" y2="360.078" gradientUnits="userSpaceOnUse">
<stop stop-color="#808080" stop-opacity="0.25"/>
<stop offset="0.54" stop-color="#808080" stop-opacity="0.12"/>
<stop offset="1" stop-color="#808080" stop-opacity="0.1"/>
</linearGradient>
<linearGradient id="paint22_linear_130:1409" x1="2300.94" y1="2680.88" x2="2416.18" y2="2680.88" gradientUnits="userSpaceOnUse">
<stop stop-color="#808080" stop-opacity="0.25"/>
<stop offset="0.54" stop-color="#808080" stop-opacity="0.12"/>
<stop offset="1" stop-color="#808080" stop-opacity="0.1"/>
</linearGradient>
<linearGradient id="paint23_linear_130:1409" x1="707.061" y1="405.547" x2="716.288" y2="405.547" gradientUnits="userSpaceOnUse">
<stop stop-color="#808080" stop-opacity="0.25"/>
<stop offset="0.54" stop-color="#808080" stop-opacity="0.12"/>
<stop offset="1" stop-color="#808080" stop-opacity="0.1"/>
</linearGradient>
<linearGradient id="paint24_linear_130:1409" x1="728.672" y1="405.547" x2="737.915" y2="405.547" gradientUnits="userSpaceOnUse">
<stop stop-color="#808080" stop-opacity="0.25"/>
<stop offset="0.54" stop-color="#808080" stop-opacity="0.12"/>
<stop offset="1" stop-color="#808080" stop-opacity="0.1"/>
</linearGradient>
<clipPath id="clip0_130:1409">
<rect width="48" height="51" fill="white"/>
</clipPath>
</defs>
</svg>
