<svg width="24" height="24" viewBox="0 0 24 24" fill="none" xmlns="http://www.w3.org/2000/svg">
<path d="M15.2154 11.8686C15.9417 11.489 16.3956 10.8201 16.2891 9.70673C16.1459 8.18468 14.8644 7.67509 13.2469 7.53048L13.2461 5.69078C13.2465 5.68489 13.2494 5.67981 13.2494 5.67372C13.2494 5.53337 13.1385 5.41984 13.0017 5.41964H12.2465C12.1808 5.41969 12.1179 5.44646 12.0715 5.49407C12.0251 5.54167 11.9991 5.60622 11.9991 5.67352H11.9933L11.9943 7.47544C11.6648 7.47544 11.3281 7.48214 10.9937 7.48925L10.9931 5.69586C10.9937 5.68814 10.9975 5.68144 10.9975 5.67352C10.9975 5.53317 10.8866 5.41964 10.7497 5.41943H9.99453C9.9289 5.41949 9.86598 5.44626 9.81959 5.49386C9.77321 5.54147 9.74715 5.60601 9.74715 5.67331L9.74121 5.67392L9.7416 7.53089C9.47026 7.53658 9.20387 7.54247 8.94402 7.54247L8.94382 7.53576H7.21555V7.5384C7.183 7.53838 7.15077 7.54493 7.1207 7.55769C7.09062 7.57045 7.0633 7.58916 7.04029 7.61276C7.01727 7.63636 6.99902 7.66438 6.98658 7.69522C6.97414 7.72606 6.96775 7.75911 6.96777 7.79248V8.6508C6.96777 8.79114 7.07869 8.90488 7.21555 8.90488L7.21654 8.90468V8.90853C7.21654 8.90853 8.14187 8.89005 8.12642 8.90691C8.63385 8.90711 8.79923 9.20913 8.84736 9.46971L8.84835 11.8751L8.84855 11.8842L8.84954 15.2531C8.82736 15.4168 8.73348 15.6782 8.37895 15.6788C8.39499 15.6932 7.46807 15.6786 7.46807 15.6786L7.46788 15.6798C7.46629 15.6798 7.4651 15.6788 7.46352 15.6788C7.34448 15.6788 7.24981 15.7665 7.22585 15.8813L7.21574 15.8806L6.98758 16.9305L6.99293 16.9315C6.99194 16.9408 6.98758 16.949 6.98758 16.9587C6.98758 17.0936 7.09097 17.2014 7.2205 17.2097L7.2199 17.2136L8.85053 17.213C9.15396 17.213 9.45263 17.2181 9.74576 17.2199L9.74715 19.101C9.74715 19.2412 9.85866 19.3549 9.99552 19.3549H10.7507C10.8164 19.3548 10.8793 19.328 10.9257 19.2804C10.972 19.2327 10.9981 19.1682 10.9981 19.1008L10.9977 17.2426C11.3413 17.2498 11.6739 17.2524 11.9987 17.2516L11.9991 19.101C11.9993 19.2412 12.1106 19.3549 12.2473 19.3549H13.0025C13.0681 19.3548 13.131 19.328 13.1774 19.2804C13.2238 19.2327 13.2498 19.1682 13.2498 19.1008L13.2514 19.1006L13.251 17.2225C15.3574 17.0976 16.8318 16.5529 17.014 14.5241C17.1609 12.891 16.4113 12.1622 15.2154 11.8686ZM11.0234 8.99973C11.7307 8.99932 13.9526 8.76778 13.9533 10.2817C13.9535 11.7335 11.7315 11.5649 11.0242 11.5653L11.0234 8.99973ZM11.0256 15.6889L11.025 12.8599C11.8743 12.8599 14.5372 12.6085 14.5378 14.2725C14.539 15.8681 11.8749 15.6875 11.0256 15.6889Z" fill="#F1590E"/>
<circle cx="12" cy="12" r="11.5" stroke="#F1590E"/>
</svg>
