<svg width="25" height="28" viewBox="0 0 25 28" fill="none" xmlns="http://www.w3.org/2000/svg">
<path d="M22.922 3.48098H22.1301C22.0851 3.48098 22.0421 3.50321 22.0118 3.54209L19.8715 6.34532V0.0888856C19.8715 0.0399985 19.8363 0 19.7933 0H19.2067C19.1637 0 19.1285 0.0399985 19.1285 0.0888856V6.34532L16.9882 3.54209C16.9589 3.50321 16.9159 3.48098 16.8699 3.48098H16.078C16.0115 3.48098 15.9753 3.57098 16.0193 3.62765L19.2644 7.87749C19.2937 7.91595 19.33 7.94679 19.3707 7.96792C19.4114 7.98906 19.4557 8 19.5005 8C19.5453 8 19.5895 7.98906 19.6303 7.96792C19.671 7.94679 19.7073 7.91595 19.7366 7.87749L22.9807 3.62765C23.0247 3.56987 22.9885 3.48098 22.922 3.48098Z" fill="#F1590E"/>
<path d="M16.5 16.75H18V18.25H16.5V16.75Z" fill="#F1590E"/>
<path d="M21 10H3V7.75L15 8V7V6L3 6.25C2.60218 6.25 2.22064 6.40804 1.93934 6.68934C1.65804 6.97064 1.5 7.35218 1.5 7.75V23.5C1.5 23.8978 1.65804 24.2794 1.93934 24.5607C2.22064 24.842 2.60218 25 3 25H21C21.3978 25 21.7794 24.842 22.0607 24.5607C22.342 24.2794 22.5 23.8978 22.5 23.5V11.5C22.5 11.1022 22.342 10.7206 22.0607 10.4393C21.7794 10.158 21.3978 10 21 10ZM3 23.5V11.5H21V13.75H15C14.6022 13.75 14.2206 13.908 13.9393 14.1893C13.658 14.4706 13.5 14.8522 13.5 15.25V19.75C13.5 20.1478 13.658 20.5294 13.9393 20.8107C14.2206 21.092 14.6022 21.25 15 21.25H21V23.5H3ZM21 15.25V19.75H15V15.25H21Z" fill="#F1590E"/>
</svg>
