<svg width="27" height="27" viewBox="0 0 27 27" fill="none" xmlns="http://www.w3.org/2000/svg">
<path d="M1.68726 18.5625H25.3123V20.25H1.68726V18.5625Z" fill="#360732"/>
<path d="M1.68726 21.9375H25.3123V23.625H1.68726V21.9375Z" fill="#360732"/>
<path d="M20.2498 8.4375C19.916 8.4375 19.5897 8.53647 19.3122 8.7219C19.0347 8.90732 18.8184 9.17087 18.6907 9.47922C18.563 9.78757 18.5296 10.1269 18.5947 10.4542C18.6598 10.7816 18.8205 11.0822 19.0565 11.3182C19.2925 11.5542 19.5932 11.715 19.9205 11.7801C20.2479 11.8452 20.5872 11.8118 20.8955 11.684C21.2039 11.5563 21.4674 11.34 21.6529 11.0625C21.8383 10.785 21.9373 10.4588 21.9373 10.125C21.9373 9.67745 21.7595 9.24823 21.443 8.93176C21.1265 8.61529 20.6973 8.4375 20.2498 8.4375Z" fill="#360732"/>
<path d="M13.4998 13.5C12.8322 13.5 12.1797 13.3021 11.6247 12.9312C11.0697 12.5604 10.6371 12.0333 10.3817 11.4166C10.1262 10.7999 10.0594 10.1213 10.1896 9.46657C10.3198 8.81189 10.6413 8.21052 11.1133 7.73852C11.5853 7.26651 12.1866 6.94508 12.8413 6.81485C13.496 6.68463 14.1746 6.75146 14.7913 7.00691C15.408 7.26235 15.9351 7.69494 16.306 8.24995C16.6768 8.80497 16.8748 9.45749 16.8748 10.125C16.8736 11.0198 16.5177 11.8776 15.885 12.5103C15.2523 13.1429 14.3945 13.4989 13.4998 13.5ZM13.4998 8.4375C13.166 8.4375 12.8397 8.53647 12.5622 8.7219C12.2847 8.90732 12.0684 9.17087 11.9407 9.47922C11.813 9.78757 11.7796 10.1269 11.8447 10.4542C11.9098 10.7816 12.0705 11.0822 12.3065 11.3182C12.5425 11.5542 12.8432 11.715 13.1705 11.7801C13.4979 11.8452 13.8372 11.8118 14.1455 11.684C14.4539 11.5563 14.7174 11.34 14.9029 11.0625C15.0883 10.785 15.1873 10.4588 15.1873 10.125C15.1868 9.67759 15.0089 9.24862 14.6925 8.93225C14.3761 8.61588 13.9472 8.43795 13.4998 8.4375Z" fill="#360732"/>
<path d="M6.74976 8.4375C6.416 8.4375 6.08974 8.53647 5.81223 8.7219C5.53472 8.90732 5.31843 9.17087 5.19071 9.47922C5.06299 9.78757 5.02957 10.1269 5.09468 10.4542C5.15979 10.7816 5.32051 11.0822 5.55651 11.3182C5.79252 11.5542 6.0932 11.715 6.42054 11.7801C6.74788 11.8452 7.08718 11.8118 7.39553 11.684C7.70389 11.5563 7.96744 11.34 8.15286 11.0625C8.33829 10.785 8.43726 10.4588 8.43726 10.125C8.43726 9.67745 8.25947 9.24823 7.943 8.93176C7.62653 8.61529 7.19731 8.4375 6.74976 8.4375Z" fill="#360732"/>
<path d="M23.6248 16.875H3.37476C2.92755 16.8739 2.49897 16.6957 2.18274 16.3795C1.86652 16.0633 1.68837 15.6347 1.68726 15.1875V5.0625C1.68837 4.61529 1.86652 4.18671 2.18274 3.87049C2.49897 3.55426 2.92755 3.37611 3.37476 3.375H23.6248C24.072 3.37611 24.5005 3.55426 24.8168 3.87049C25.133 4.18671 25.3111 4.61529 25.3123 5.0625V15.1875C25.3116 15.6348 25.1336 16.0637 24.8173 16.38C24.5009 16.6963 24.0721 16.8743 23.6248 16.875ZM23.6248 5.0625H3.37476V15.1875H23.6248V5.0625Z" fill="#360732"/>
</svg>
