<svg width="29" height="29" viewBox="0 0 29 29" fill="none" xmlns="http://www.w3.org/2000/svg">
<g clip-path="url(#clip0_78:635)">
<path fill-rule="evenodd" clip-rule="evenodd" d="M1.37146 10.5001C1.37146 10.2614 1.46628 10.0325 1.63506 9.8637C1.80385 9.69492 2.03277 9.6001 2.27146 9.6001H25.6715C25.9102 9.6001 26.1391 9.69492 26.3079 9.8637C26.4766 10.0325 26.5715 10.2614 26.5715 10.5001C26.5715 10.7388 26.4766 10.9677 26.3079 11.1365C26.1391 11.3053 25.9102 11.4001 25.6715 11.4001H2.27146C2.03277 11.4001 1.80385 11.3053 1.63506 11.1365C1.46628 10.9677 1.37146 10.7388 1.37146 10.5001ZM13.9715 15.0001C14.2102 15.0001 14.4391 15.0949 14.6079 15.2637C14.7766 15.4325 14.8715 15.6614 14.8715 15.9001V26.3275L18.7343 22.4629C18.9033 22.2939 19.1325 22.199 19.3715 22.199C19.6105 22.199 19.8397 22.2939 20.0087 22.4629C20.1777 22.6319 20.2726 22.8611 20.2726 23.1001C20.2726 23.3391 20.1777 23.5683 20.0087 23.7373L14.6087 29.1373C14.5251 29.2211 14.4257 29.2876 14.3164 29.333C14.2071 29.3783 14.0898 29.4017 13.9715 29.4017C13.8531 29.4017 13.7359 29.3783 13.6265 29.333C13.5172 29.2876 13.4179 29.2211 13.3343 29.1373L7.93426 23.7373C7.76526 23.5683 7.67032 23.3391 7.67032 23.1001C7.67032 22.8611 7.76526 22.6319 7.93426 22.4629C8.10326 22.2939 8.33246 22.199 8.57146 22.199C8.81046 22.199 9.03966 22.2939 9.20866 22.4629L13.0715 26.3275V15.9001C13.0715 15.6614 13.1663 15.4325 13.3351 15.2637C13.5038 15.0949 13.7328 15.0001 13.9715 15.0001Z" fill="#F1590E"/>
</g>
<defs>
<clipPath id="clip0_78:635">
<rect width="28.8" height="28.8" fill="white"/>
</clipPath>
</defs>
</svg>
