<svg width="32" height="34" viewBox="0 0 32 34" fill="none" xmlns="http://www.w3.org/2000/svg">
<g clip-path="url(#clip0_78:825)">
<path d="M31.5216 20.9905C29.3839 29.7809 20.695 35.1245 12.1312 32.9331C3.55498 30.7419 -1.65827 21.8362 0.479602 13.0585C2.61735 4.26811 11.2936 -1.07547 19.8699 1.11585C28.4336 3.29424 33.6595 12.1999 31.5216 20.9905Z" fill="url(#paint0_linear_78:825)"/>
<path d="M23.618 14.9811C23.9305 12.8029 22.318 11.6242 20.093 10.8426L20.818 7.88295L19.068 7.43451L18.368 10.3173C17.9055 10.202 17.4305 10.0867 16.9555 9.9842L17.6555 7.08857L15.9055 6.64014L15.193 9.58701C14.8055 9.49732 14.4305 9.40764 14.068 9.31795V9.30514L11.643 8.69014L11.1805 10.612C11.1805 10.612 12.4805 10.9195 12.4555 10.9323C13.168 11.1117 13.293 11.5986 13.268 11.9829L12.443 15.3526C12.493 15.3654 12.5555 15.3783 12.6305 15.4167C12.568 15.4039 12.5055 15.3911 12.443 15.3654L11.293 20.0805C11.2055 20.2983 10.9805 20.6314 10.493 20.5033C10.5055 20.5289 9.21802 20.1829 9.21802 20.1829L8.34302 22.2458L10.6305 22.8351C11.0555 22.9505 11.468 23.0529 11.8805 23.1683L11.1555 26.1536L12.9055 26.602L13.6305 23.6423C14.1055 23.7704 14.5805 23.8986 15.0305 24.0139L14.318 26.9608L16.068 27.4092L16.793 24.4239C19.793 25.0005 22.043 24.7698 22.9805 21.9895C23.743 19.7601 22.943 18.4661 21.368 17.6204C22.5305 17.3514 23.393 16.5698 23.618 14.9811ZM19.6055 20.7467C19.068 22.9761 15.393 21.7717 14.2055 21.4642L15.168 17.5051C16.3555 17.8126 20.1805 18.4148 19.6055 20.7467ZM20.1555 14.9426C19.6555 16.9798 16.6055 15.942 15.618 15.6858L16.493 12.0983C17.4805 12.3545 20.668 12.8286 20.1555 14.9426Z" fill="white"/>
</g>
<defs>
<linearGradient id="paint0_linear_78:825" x1="15.9916" y1="0.61664" x2="15.9916" y2="33.4212" gradientUnits="userSpaceOnUse">
<stop stop-color="#F9AA4B"/>
<stop offset="1" stop-color="#F7931A"/>
</linearGradient>
<clipPath id="clip0_78:825">
<rect width="32" height="32.8" fill="white" transform="translate(0 0.624512)"/>
</clipPath>
</defs>
</svg>
