<svg width="85" height="21" viewBox="0 0 85 21" fill="none" xmlns="http://www.w3.org/2000/svg">
<g clip-path="url(#clip0_79:1789)">
<path d="M3.57031 3.3439L3.87788 3.22119L3.95867 3.40295L3.996 3.83733L3.92719 3.88889L3.57031 3.3439Z" fill="black"/>
<path d="M5.06468 4.19922L4.71338 4.40921L5.08251 4.97206L5.1686 4.90725L5.22209 4.46048L5.06468 4.19922Z" fill="black"/>
<g opacity="0.05">
<path opacity="0.05" d="M5.80166 1.57715C5.73089 1.68776 5.66487 1.80759 5.64453 1.8917L5.70025 1.85195C5.69329 1.78944 5.73925 1.68574 5.80166 1.57715Z" fill="black"/>
<path opacity="0.05" d="M6.11837 3.08269L6.15709 2.24072C5.29346 2.80732 4.02976 3.32437 4.02976 3.32437L3.96875 3.42432C3.96875 3.42432 5.23384 2.90727 6.09608 2.34068L6.05986 3.13368L6.11837 3.08269Z" fill="black"/>
</g>
<g opacity="0.5">
<path opacity="0.5" d="M3.85721 3.92927L3.92797 3.87599L3.88981 3.42864L3.80651 3.2417L3.48975 3.36815L3.85721 3.92927Z" fill="url(#paint0_linear_79:1789)"/>
<path opacity="0.5" d="M8.68034 0.0540706C8.48783 -0.041562 8.3438 0.00337379 8.24295 0.0828756C8.15292 0.152974 8.08262 0.246645 8.0393 0.354219L8.01144 0.430552L7.88106 0.528489L7.83871 0.434873C7.83871 0.434873 7.37708 -0.413146 6.01532 1.24285L6.00919 1.23767C6.00919 1.23767 5.8933 1.38429 5.78771 1.54876L5.77267 1.57238L5.76598 1.58304L5.75651 1.59831L5.74954 1.60983L5.73896 1.62798L5.72976 1.64353L5.72001 1.66053L5.71305 1.67291L5.70581 1.68587L5.69884 1.69884L5.6916 1.71266L5.68101 1.7334L5.67516 1.74492L5.66875 1.75846L5.66402 1.76883L5.65789 1.78237L5.65399 1.7913C5.65064 1.79937 5.64749 1.80724 5.64451 1.81492L5.64117 1.82385L5.63671 1.83652L5.63393 1.84517C5.63189 1.85169 5.63003 1.85813 5.62836 1.86447C5.62836 1.86792 5.62641 1.87109 5.62585 1.87426C5.62039 1.89449 5.61832 1.91553 5.61972 1.93648L3.80664 3.24106L3.89969 3.45018C3.89969 3.45018 5.20267 2.91786 6.09082 2.33399L6.05349 3.15061L6.05126 3.20102C6.05126 3.20102 5.24 3.89551 5.02883 4.24923L4.66666 4.46556L5.04693 5.04511L5.13553 4.97857L5.19124 4.51769L6.67976 3.28743C6.67976 3.28743 6.96198 2.75425 6.96699 2.30806L7.028 2.55146C7.028 2.55146 7.15783 2.92852 7.24949 2.9435C7.34114 2.95848 7.34142 2.65113 7.27734 2.55982C7.21327 2.46851 7.24336 1.85842 7.24336 1.85842L7.26007 1.73427L7.49298 1.55913L7.50161 1.55078L7.51387 1.6274L7.56067 1.63172V1.63518L7.5629 1.65736L7.59299 2.23893L7.75792 2.89684C7.75792 2.89684 7.88774 3.27389 7.9794 3.28887C8.07105 3.30385 8.07133 2.9965 8.00726 2.90519C7.94318 2.81388 7.97355 2.20408 7.97355 2.20408L8.04153 1.69624V1.68645L8.04292 1.67522L8.17692 1.68731C8.17692 1.68731 8.31622 1.19216 8.08304 0.976407L8.04069 0.88279L8.12761 0.817691L8.14516 0.804729C8.21882 0.879238 8.31778 0.92096 8.42083 0.92096C8.52388 0.92096 8.62283 0.879238 8.6965 0.804729C8.76167 0.810996 8.82687 0.79302 8.88037 0.754032L8.91408 0.728972C8.95034 0.705162 8.98309 0.676056 9.01131 0.642557C9.03499 0.597045 8.97843 0.20184 8.68034 0.0540706Z" fill="url(#paint1_linear_79:1789)"/>
</g>
<path d="M6.01752 1.27539C6.01752 1.27539 5.62108 1.7766 5.63975 1.95231L3.87793 3.22117L3.96819 3.42424C3.96819 3.42424 5.23328 2.90719 6.09552 2.3406L6.05708 3.18372C6.05708 3.18372 5.2695 3.8569 5.06473 4.20054L5.22214 4.4618L6.66747 3.26726C6.66747 3.26726 7.09623 2.45726 6.89035 2.01539L6.01752 1.27539Z" fill="#535461"/>
<path d="M18.7156 13.5536C17.4466 18.8157 12.2916 22.0185 7.20112 20.7061C2.11068 19.3938 -0.985042 14.0634 0.284782 8.80073C1.55461 3.53805 6.70829 0.334932 11.7971 1.647C16.8858 2.95907 19.9846 8.29001 18.7156 13.5536Z" fill="white"/>
<path d="M13.6888 9.777C13.878 8.46983 12.9154 7.76728 11.5994 7.29977L12.0264 5.52913L10.9839 5.26038L10.568 6.98292C10.2939 6.91234 10.0125 6.84581 9.73223 6.77955L10.1501 5.04405L9.10985 4.77588L8.68249 6.54595C8.45571 6.49266 8.23284 6.43965 8.01693 6.38406V6.37859L6.58023 6.00643L6.30164 7.15863C6.30164 7.15863 7.07501 7.34183 7.05885 7.35335C7.48092 7.46223 7.55725 7.75115 7.54472 7.98015L7.05829 9.99649C7.09515 10.006 7.13135 10.018 7.16667 10.0325C7.13184 10.0236 7.09479 10.0138 7.05523 10.0037L6.37351 12.8295C6.32198 12.962 6.19104 13.161 5.89573 13.0855C5.90604 13.1011 5.13796 12.89 5.13796 12.89L4.62451 14.1251L5.97959 14.4751C6.23199 14.5405 6.47938 14.609 6.72287 14.6733L6.29161 16.4626L7.33299 16.7314L7.76035 14.9596C8.04479 15.0394 8.32088 15.1131 8.59111 15.1825L8.16542 16.9463L9.20791 17.215L9.63917 15.4283C11.4169 15.7759 12.7536 15.6356 13.3166 13.9733C13.7699 12.6347 13.294 11.8628 12.3588 11.3593C13.038 11.1971 13.552 10.7339 13.6888 9.777ZM11.3071 13.2301C10.9851 14.5687 8.80535 13.8451 8.09884 13.6622L8.67135 11.2896C9.37786 11.4733 11.645 11.8343 11.3071 13.2301ZM11.6294 9.75741C11.3355 10.975 9.52133 10.3563 8.93294 10.2048L9.45196 8.05158C10.0406 8.20454 11.9356 8.48769 11.6294 9.75741Z" fill="#F1590E"/>
<path d="M7.50781 1.36035L7.5535 2.24754L7.71341 2.88615C7.71341 2.88615 7.83934 3.25226 7.92849 3.26667C8.01764 3.28107 8.01792 2.98265 7.95635 2.89393C7.89478 2.80521 7.92431 2.21327 7.92431 2.21327L8.02349 1.46002L7.50781 1.36035Z" fill="#FDA57D"/>
<path d="M7.45459 1.50922L7.47771 1.65324L8.12238 1.71085C8.12238 1.71085 8.25722 1.2301 8.031 1.01953L7.45459 1.50922Z" fill="#F55F44"/>
<path d="M8.03068 1.02147L7.79248 0.495779C7.79248 0.495779 7.34256 -0.330637 6.01367 1.29051L6.89012 2.01409L7.45734 1.58778L8.03068 1.02147Z" fill="#F55F44"/>
<path d="M8.21875 0.297852L8.4307 0.599364L7.96804 0.947044C7.93576 0.971298 7.89549 0.981303 7.85608 0.974856C7.81667 0.96841 7.78136 0.946041 7.7579 0.912671L7.72301 0.86304C7.69955 0.829669 7.68988 0.788031 7.69611 0.747284C7.70235 0.706537 7.72398 0.670019 7.75626 0.645765L8.21891 0.298085L8.21875 0.297852Z" fill="#FDA57D"/>
<path opacity="0.05" d="M7.9727 0.482885C7.95456 0.550486 7.95441 0.621894 7.97226 0.689576C7.99011 0.757259 8.02529 0.818705 8.07411 0.867432L8.2928 0.702955L8.08079 0.401367L7.9727 0.482885Z" fill="black"/>
<path d="M8.58291 0.891272C8.7538 0.762854 8.79186 0.515831 8.66793 0.339531C8.544 0.16323 8.30501 0.124413 8.13412 0.25283C7.96324 0.381248 7.92517 0.628271 8.0491 0.804572C8.17303 0.980873 8.41203 1.01969 8.58291 0.891272Z" fill="#FDA57D"/>
<path opacity="0.05" d="M8.18186 0.338981L7.96094 0.491648L7.9888 0.417331C7.9888 0.417331 8.17044 -0.0723542 8.5939 0.138787C8.88336 0.282812 8.93824 0.665918 8.91623 0.709702C8.88356 0.746447 8.84604 0.778253 8.80479 0.804182C8.75045 0.844001 8.68365 0.861299 8.61757 0.852659C8.5515 0.844019 8.49096 0.81007 8.44792 0.757518C8.37381 0.666206 8.24455 0.477245 8.26823 0.368939C8.2465 0.328035 8.21808 0.311329 8.18158 0.340134L8.18186 0.338981Z" fill="black"/>
<path d="M8.19895 0.326286L7.97803 0.478953L8.00589 0.404636C8.00589 0.404636 8.18753 -0.0850495 8.61099 0.126091C8.90045 0.270116 8.95533 0.653223 8.93332 0.697006C8.90065 0.733752 8.86313 0.765557 8.82188 0.791487C8.76755 0.831305 8.70074 0.848603 8.63466 0.839964C8.56859 0.831324 8.50805 0.797374 8.46501 0.744823C8.3909 0.653511 8.26164 0.46455 8.28532 0.356243C8.26359 0.31534 8.23517 0.298633 8.19867 0.327438L8.19895 0.326286Z" fill="#5A2F32"/>
<path d="M8.27358 0.351613C8.31159 0.322986 8.33122 0.283901 8.31742 0.264314C8.30362 0.244728 8.26162 0.252057 8.22361 0.280684C8.1856 0.309312 8.16597 0.348398 8.17977 0.367984C8.19357 0.387571 8.23557 0.380241 8.27358 0.351613Z" fill="#FDA57D"/>
<path opacity="0.05" d="M7.3833 1.57591L7.48443 1.48633L7.48554 1.62776L7.46353 1.57332L7.3833 1.57591Z" fill="black"/>
<path opacity="0.05" d="M7.52246 1.66113L7.52469 1.68302L7.98966 1.72047L7.99245 1.70002L7.52246 1.66113Z" fill="black"/>
<path d="M6.7998 1.02539L6.84549 1.91259L7.00541 2.54975C7.00541 2.54975 7.13133 2.91586 7.22048 2.93027C7.30963 2.94467 7.30991 2.64625 7.24834 2.55753C7.18677 2.46881 7.21574 1.87831 7.21574 1.87831L7.31659 1.12506L6.7998 1.02539Z" fill="#FDA57D"/>
<path d="M10.5929 7.79932H10.5444V7.84944H10.5929V7.79932Z" fill="#CCCCCC"/>
<path d="M10.5127 7.875H10.6325C10.6411 7.875 10.6496 7.87675 10.6576 7.88015C10.6655 7.88355 10.6727 7.88854 10.6788 7.89483C10.6849 7.90111 10.6897 7.90857 10.693 7.91679C10.6963 7.925 10.698 7.9338 10.698 7.94269V8.36007H10.4473V7.94269C10.4473 7.9338 10.449 7.925 10.4522 7.91679C10.4555 7.90857 10.4604 7.90111 10.4664 7.89483C10.4725 7.88854 10.4797 7.88355 10.4877 7.88015C10.4956 7.87675 10.5041 7.875 10.5127 7.875Z" fill="#535461"/>
<path d="M10.6413 7.8418H10.4956V7.87521H10.6413V7.8418Z" fill="#F7931A"/>
<path d="M10.698 8.06689H10.4473V8.16714H10.698V8.06689Z" fill="#F7931A"/>
<path d="M10.5928 7.80811V7.83317C10.5839 7.83317 10.5767 7.82741 10.5767 7.82049C10.5767 7.81358 10.5839 7.80811 10.5928 7.80811Z" fill="#E6E6E6"/>
<path opacity="0.05" d="M6.85076 0.59375C6.85076 0.59375 6.74434 0.89073 6.78947 0.992123L6.85076 0.59375Z" fill="black"/>
<path opacity="0.05" d="M6.80155 1.01025L6.80127 1.06527L7.31193 1.15399L7.31806 1.10992L6.80155 1.01025Z" fill="black"/>
<path d="M6.91737 0.557712L6.7998 1.02551L7.31631 1.12517L7.45282 0.534668L6.91737 0.557712Z" fill="#F55F44"/>
<g opacity="0.5">
<path opacity="0.5" d="M6.89941 2.17773L7.0011 2.57582C7.0011 2.57582 7.13232 2.95029 7.22397 2.9644C7.31563 2.97851 7.31702 2.67433 7.25183 2.58389C7.21757 2.53636 7.21032 2.34682 7.21088 2.17773H6.89941Z" fill="url(#paint2_linear_79:1789)"/>
</g>
<path d="M6.90771 2.17773L7.0055 2.56747C7.0055 2.56747 7.13142 2.93358 7.22057 2.94798C7.30972 2.96238 7.31 2.66396 7.24843 2.57524C7.21556 2.52858 7.20859 2.34308 7.20915 2.17773H6.90771Z" fill="#FDA57D"/>
<g opacity="0.5">
<path opacity="0.5" d="M7.9419 2.16162H7.53516L7.54073 2.26705L7.71011 2.92438C7.71011 2.92438 7.84356 3.30115 7.93772 3.31613C8.03189 3.3311 8.03217 3.02376 7.96558 2.93273C7.899 2.84171 7.93243 2.23306 7.93243 2.23306L7.9419 2.16162Z" fill="url(#paint3_linear_79:1789)"/>
</g>
<path d="M7.9328 2.16162H7.54834L7.55363 2.26417L7.71354 2.90277C7.71354 2.90277 7.83947 3.26888 7.92862 3.28329C8.01777 3.29769 8.01805 2.99927 7.95648 2.91055C7.89491 2.82183 7.92444 2.22989 7.92444 2.22989L7.9328 2.16162Z" fill="#FDA57D"/>
<path opacity="0.2" d="M10.5864 7.80614L11.2829 7.66211L11.3108 8.00777L10.5864 7.83494V7.80614Z" fill="#535461"/>
<g opacity="0.5">
<path opacity="0.5" d="M9.53562 7.91271L9.55484 7.92136L10.1677 8.19414L10.9486 7.23637C10.9486 7.23637 11.067 7.09955 10.9261 7.00593C10.7851 6.91232 10.6965 7.15457 10.6965 7.15457L10.0964 7.82111L9.5866 7.55755L9.59468 7.50224L9.12999 7.22456C9.12098 7.20707 9.11112 7.19005 9.10045 7.17358L9.09628 7.15802L9.07315 7.137C9.0687 7.1321 9.06424 7.12749 9.05978 7.12346L9.13667 7.03704C9.19388 7.05777 9.2548 7.06525 9.31512 7.05894C9.37543 7.05264 9.43367 7.03271 9.48571 7.00055C9.53775 6.9684 9.58232 6.92482 9.61627 6.87288C9.65022 6.82095 9.67271 6.76194 9.68216 6.70002C9.71814 6.70711 9.7551 6.70711 9.79109 6.70002C9.8384 6.68973 9.8826 6.66778 9.91995 6.63603C9.9573 6.60429 9.98668 6.56369 10.0056 6.51769C10.004 6.52079 10.0018 6.52347 9.999 6.52552C9.99625 6.52757 9.99307 6.52893 9.98972 6.5295C9.9957 6.51872 10.001 6.50756 10.0056 6.49608C9.98972 6.53584 9.84123 6.48111 9.81895 6.46728C9.75097 6.42983 9.71587 6.37453 9.67965 6.30655C9.61028 6.17232 9.48213 6.12277 9.33782 6.11096C9.22755 6.09862 9.11602 6.11312 9.01214 6.1533C8.96039 6.17376 8.91331 6.20508 8.87385 6.24529C8.83439 6.28549 8.80341 6.33372 8.78286 6.38691C8.77044 6.42342 8.76476 6.46202 8.76614 6.50069C8.76379 6.54211 8.77042 6.58355 8.78556 6.62198C8.80069 6.66041 8.82395 6.69485 8.85362 6.72278C8.85869 6.72729 8.86399 6.73152 8.8695 6.73545C8.87257 6.74784 8.87591 6.75994 8.88009 6.77204L8.85975 6.79479L8.7277 6.94285L8.72101 6.94083L7.33 7.15601V7.15889C7.28375 7.1272 7.07425 7.01717 6.55133 7.16666C6.35381 7.22427 6.02479 7.21707 5.67154 7.18337C5.42471 6.86594 5.26535 5.87735 5.26535 5.87735L5.20295 5.59766L4.39308 5.79123C4.39308 5.79123 4.76667 5.87764 4.82908 5.9848C4.92408 6.01763 4.98286 6.7513 5.00543 7.09753C4.5204 7.02005 4.12312 6.93133 4.12312 6.93133L3.83255 6.82389L3.625 7.57685C3.625 7.57685 3.85345 7.3176 4.061 7.29715C4.061 7.29715 5.09903 7.81334 5.86739 7.70589C6.1666 7.66413 6.45578 7.7949 6.69787 7.83494C6.9098 7.87147 7.12388 7.89302 7.33864 7.89946L7.34114 8.13595C7.34114 8.13595 8.19614 8.09793 8.75779 7.91358C8.80041 8.03283 8.83468 8.11896 8.84666 8.12529L8.94862 8.07373L9.52141 8.80279L10.6422 8.32923C10.6422 8.32923 10.8093 8.26471 10.7258 8.11406C10.6422 7.96341 10.4558 8.13566 10.4558 8.13566L9.62532 8.43668L9.27485 7.93432L9.2612 7.91473L9.33475 7.87757C9.33475 7.87757 9.33252 7.86634 9.32807 7.84704L9.52141 8.00662L9.53562 7.91271Z" fill="url(#paint4_linear_79:1789)"/>
</g>
<path d="M8.85815 7.29733L8.60156 7.05134L9.02642 6.5752L9.283 6.8209L8.85815 7.29733Z" fill="#FDA57D"/>
<path opacity="0.05" d="M9.00585 6.5957L8.81836 6.80598C8.83859 6.86507 8.8714 6.9187 8.91436 6.96293C8.95733 7.00715 9.00935 7.04083 9.06659 7.06148L9.2616 6.8417L9.00585 6.5957Z" fill="black"/>
<path d="M9.06104 7.70913L10.0899 8.16684L10.8502 7.23529C10.8502 7.23529 10.9652 7.10221 10.8281 7.01119C10.6911 6.92016 10.6053 7.15521 10.6053 7.15521L10.0202 7.80274L9.26942 7.41503L9.06104 7.70913Z" fill="#FDA57D"/>
<path d="M9.00719 7.1792L9.53234 7.49289L9.46158 7.98459L8.9668 7.57671L9.00719 7.1792Z" fill="#6C63FF"/>
<path d="M9.2189 7.06461C9.442 7.06461 9.62286 6.87723 9.62286 6.64608C9.62286 6.41492 9.442 6.22754 9.2189 6.22754C8.9958 6.22754 8.81494 6.41492 8.81494 6.64608C8.81494 6.87723 8.9958 7.06461 9.2189 7.06461Z" fill="#FDA57D"/>
<path d="M8.88699 7.01201L8.68501 6.94922L7.33105 7.15863L7.34108 8.1092C7.34108 8.1092 8.98701 8.03603 9.16865 7.59675L9.04746 7.15863L8.88699 7.01201Z" fill="#6C63FF"/>
<path opacity="0.05" d="M8.98291 7.58951L9.46181 7.98471L9.48215 7.81736L9.00743 7.34668L8.98291 7.58951Z" fill="black"/>
<path d="M7.34104 7.16892C7.34104 7.16892 7.1594 7.00156 6.5738 7.16892C5.9882 7.33627 4.21105 6.93848 4.21105 6.93848L4.15088 7.29451C4.15088 7.29451 5.1605 7.79658 5.90768 7.69202C6.19853 7.6514 6.47991 7.77843 6.7156 7.8176C6.92246 7.85294 7.13144 7.87344 7.34104 7.87896V7.16892Z" fill="#4D8AF0"/>
<path d="M4.2111 6.93855L3.92805 6.83398L3.72607 7.56621C3.72607 7.56621 3.94895 7.31503 4.15009 7.29429L4.2111 6.93855Z" fill="#535461"/>
<path d="M4.89746 6.01814L5.32092 5.91357C5.32092 5.91357 5.5229 7.16889 5.82573 7.27346H5.07938C5.07938 7.27346 5.01865 6.0599 4.89746 6.01814Z" fill="#4D8AF0"/>
<path d="M5.32118 5.91352L5.26072 5.6416L4.47314 5.82999C4.47314 5.82999 4.83531 5.91381 4.89716 6.01837L5.32118 5.91352Z" fill="#535461"/>
<path opacity="0.05" d="M9.28371 6.16187C9.17646 6.14986 9.06798 6.16397 8.96695 6.20306C8.91663 6.22297 8.87085 6.25345 8.83249 6.29256C8.79413 6.33168 8.76402 6.37859 8.74407 6.43033C8.70785 6.53518 8.73126 6.66394 8.81316 6.73596C8.83261 6.75492 8.8576 6.76668 8.8842 6.76937C8.92711 6.7711 8.96305 6.73855 8.99564 6.71032C9.05753 6.6575 9.12569 6.61307 9.19846 6.5781C9.26031 6.5493 9.3358 6.52625 9.39347 6.56284C9.41957 6.58287 9.44323 6.60608 9.46396 6.63197C9.49734 6.66627 9.53838 6.69155 9.58345 6.70557C9.62852 6.71959 9.67624 6.72192 9.72239 6.71235C9.76854 6.70279 9.8117 6.68162 9.84806 6.65072C9.88442 6.61982 9.91287 6.58014 9.93088 6.53518C9.91528 6.57407 9.77097 6.52049 9.74924 6.50868C9.68293 6.47239 9.64894 6.41852 9.61496 6.35256C9.54865 6.22149 9.42384 6.17339 9.28371 6.16187Z" fill="black"/>
<path d="M9.28371 6.14136C9.17646 6.12936 9.06798 6.14346 8.96695 6.18255C8.91663 6.20246 8.87085 6.23294 8.83249 6.27205C8.79413 6.31117 8.76402 6.35808 8.74407 6.40982C8.70785 6.51467 8.73126 6.64343 8.81316 6.71544C8.83261 6.73441 8.8576 6.74616 8.8842 6.74886C8.92711 6.75058 8.96305 6.71803 8.99564 6.68981C9.05753 6.63699 9.12569 6.59256 9.19846 6.55759C9.26031 6.52879 9.3358 6.50574 9.39347 6.54232C9.41957 6.56236 9.44323 6.58557 9.46396 6.61146C9.49734 6.64576 9.53838 6.67104 9.58345 6.68506C9.62852 6.69908 9.67624 6.70141 9.72239 6.69184C9.76854 6.68228 9.8117 6.66111 9.84806 6.63021C9.88442 6.59931 9.91287 6.55963 9.93088 6.51467C9.91528 6.55356 9.77097 6.49998 9.74924 6.48817C9.68293 6.45188 9.64894 6.39801 9.61496 6.33205C9.54865 6.20099 9.42384 6.15259 9.28371 6.14136Z" fill="black"/>
<path d="M9.11755 6.61112C9.12529 6.57737 9.11834 6.54677 9.10203 6.54277C9.08571 6.53877 9.0662 6.56287 9.05846 6.59662C9.05071 6.63036 9.05766 6.66096 9.07398 6.66496C9.0903 6.66897 9.1098 6.64486 9.11755 6.61112Z" fill="#FDA57D"/>
<path opacity="0.05" d="M8.9043 8.04962L8.91795 8.0669L9.22161 7.91452L9.20824 7.89551L8.9043 8.04962Z" fill="black"/>
<path opacity="0.05" d="M9.52469 7.54688L9.4751 7.89052L9.49348 7.90146L9.53249 7.55062L9.52469 7.54688Z" fill="black"/>
<path d="M7.92695 6.6665H7.68457V8.3611H7.92695V6.6665Z" fill="#E0E0E0"/>
<path d="M7.46901 2.00217L7.23926 1.92236L6.71731 3.52873L6.94707 3.60854L7.46901 2.00217Z" fill="#E0E0E0"/>
<path d="M7.84593 6.85522H7.76514V2.76318L7.84481 2.7675L7.84593 6.85522Z" fill="#E0E0E0"/>
<path d="M8.75488 7.85897L9.46167 8.75855L10.5521 8.29767C10.5521 8.29767 10.7137 8.23488 10.6329 8.08855C10.5521 7.94222 10.3704 8.10958 10.3704 8.10958L9.56252 8.40252L9.07108 7.69824L8.75488 7.85897Z" fill="#FDA57D"/>
<path d="M8.46191 7.11645C8.46191 7.11645 8.76474 8.07883 8.80514 8.09957L9.27875 7.85904C9.27875 7.85904 9.14419 7.21007 8.9943 7.11011C8.84442 7.01016 8.48225 7.03263 8.46191 7.11645Z" fill="#6C63FF"/>
<path opacity="0.05" d="M8.54827 7.38623C8.54827 7.38623 8.53239 7.75436 8.63352 7.8183L8.54827 7.38623Z" fill="black"/>
<path d="M7.76577 2.76739L7.40137 2.21059L7.43953 2.09277L7.84489 2.76739H7.76577Z" fill="#E0E0E0"/>
<path d="M9.61762 6.79839L9.56494 6.76221L9.4766 6.89968L9.52928 6.93587L9.61762 6.79839Z" fill="black"/>
<path d="M9.54376 6.79185L9.15332 6.52344L9.13574 6.55078L9.52618 6.8192L9.54376 6.79185Z" fill="black"/>
<g opacity="0.7">
<path opacity="0.7" d="M16.8346 17.6831H15.8228V18.4562H16.8346V17.6831Z" fill="url(#paint5_linear_79:1789)"/>
<g opacity="0.1">
<path opacity="0.1" d="M15.8228 17.8881C15.8228 17.8881 16.2002 17.9336 16.3287 17.9336C16.4571 17.9336 16.8346 17.8881 16.8346 17.8881V17.6948H15.8228V17.8881Z" fill="url(#paint6_linear_79:1789)"/>
</g>
<path opacity="0.7" d="M16.8346 17.8768C16.8346 17.8768 16.4571 17.9223 16.3287 17.9223C16.2002 17.9223 15.8228 17.8768 15.8228 17.8768V17.1149C15.8228 16.9762 15.8761 16.8431 15.9709 16.745C16.0658 16.6469 16.1945 16.5918 16.3287 16.5918C16.4629 16.5918 16.5915 16.6469 16.6864 16.745C16.7813 16.8431 16.8346 16.9762 16.8346 17.1149V17.8768Z" fill="url(#paint7_linear_79:1789)"/>
<path opacity="0.7" d="M16.3284 16.7394C16.2964 16.7394 16.2656 16.7262 16.2429 16.7028C16.2203 16.6793 16.2075 16.6475 16.2075 16.6144V16.3301H16.4493V16.6144C16.4493 16.6475 16.4366 16.6793 16.4139 16.7028C16.3912 16.7262 16.3605 16.7394 16.3284 16.7394Z" fill="url(#paint8_linear_79:1789)"/>
<path opacity="0.7" d="M16.1858 18.1836H15.8228V20.7308H16.1858V18.1836Z" fill="url(#paint9_linear_79:1789)"/>
<path opacity="0.7" d="M16.8342 18.1836H16.4712V20.7308H16.8342V18.1836Z" fill="url(#paint10_linear_79:1789)"/>
<g opacity="0.1">
<path opacity="0.1" d="M16.2075 16.5199C16.2869 16.5401 16.3699 16.5401 16.4493 16.5199V16.3413H16.2075V16.5199Z" fill="url(#paint11_linear_79:1789)"/>
</g>
<path opacity="0.7" d="M16.3287 16.4208C16.6203 16.4208 16.8566 16.1764 16.8566 15.875C16.8566 15.5735 16.6203 15.3291 16.3287 15.3291C16.0371 15.3291 15.8008 15.5735 15.8008 15.875C15.8008 16.1764 16.0371 16.4208 16.3287 16.4208Z" fill="url(#paint12_linear_79:1789)"/>
<path opacity="0.7" d="M16.3287 16.5237C16.6081 16.5237 16.8346 16.2895 16.8346 16.0006C16.8346 15.7117 16.6081 15.4775 16.3287 15.4775C16.0493 15.4775 15.8228 15.7117 15.8228 16.0006C15.8228 16.2895 16.0493 16.5237 16.3287 16.5237Z" fill="url(#paint13_linear_79:1789)"/>
<g opacity="0.1">
<path opacity="0.1" d="M16.022 15.7382C16.0496 15.754 16.08 15.7638 16.1114 15.767C16.241 15.7853 16.3729 15.7699 16.4953 15.7223C16.5068 15.748 16.5236 15.7708 16.5445 15.789C16.5653 15.8073 16.5898 15.8206 16.6162 15.828C16.6691 15.8425 16.7237 15.8488 16.7784 15.8468C16.7904 15.8481 16.8025 15.8457 16.8132 15.8399C16.8374 15.8229 16.8257 15.784 16.8115 15.7575L16.741 15.6253C16.7223 15.585 16.6971 15.5484 16.6664 15.517C16.6237 15.4822 16.573 15.4596 16.5193 15.4516C16.3942 15.4258 16.265 15.4302 16.1418 15.4645C16.0106 15.5005 15.8415 15.6253 16.022 15.7382Z" fill="url(#paint14_linear_79:1789)"/>
</g>
<path opacity="0.7" d="M16.022 15.7269C16.0496 15.7427 16.08 15.7525 16.1114 15.7558C16.241 15.774 16.3729 15.7587 16.4953 15.7111C16.5068 15.7368 16.5236 15.7595 16.5445 15.7778C16.5653 15.7961 16.5898 15.8094 16.6162 15.8168C16.6691 15.8313 16.7237 15.8376 16.7784 15.8355C16.7904 15.8369 16.8025 15.8345 16.8132 15.8286C16.8374 15.8116 16.8257 15.7727 16.8115 15.7462L16.741 15.614C16.7223 15.5738 16.6971 15.5372 16.6664 15.5057C16.6237 15.471 16.573 15.4484 16.5193 15.4403C16.3942 15.4146 16.265 15.419 16.1418 15.4533C16.0106 15.4893 15.8415 15.6137 16.022 15.7269Z" fill="url(#paint15_linear_79:1789)"/>
<path opacity="0.7" d="M16.8287 16.0856C16.853 16.0856 16.8727 16.0474 16.8727 16.0003C16.8727 15.9532 16.853 15.915 16.8287 15.915C16.8044 15.915 16.7847 15.9532 16.7847 16.0003C16.7847 16.0474 16.8044 16.0856 16.8287 16.0856Z" fill="url(#paint16_linear_79:1789)"/>
<path opacity="0.7" d="M15.8282 16.0856C15.8525 16.0856 15.8722 16.0474 15.8722 16.0003C15.8722 15.9532 15.8525 15.915 15.8282 15.915C15.8039 15.915 15.7842 15.9532 15.7842 16.0003C15.7842 16.0474 15.8039 16.0856 15.8282 16.0856Z" fill="url(#paint17_linear_79:1789)"/>
<path opacity="0.7" d="M17.6815 15.4546C17.7482 15.4546 17.8024 15.3986 17.8024 15.3296C17.8024 15.2606 17.7482 15.2046 17.6815 15.2046C17.6147 15.2046 17.5605 15.2606 17.5605 15.3296C17.5605 15.3986 17.6147 15.4546 17.6815 15.4546Z" fill="url(#paint18_linear_79:1789)"/>
<path opacity="0.7" d="M22.5722 24.7247C22.5722 25.4587 22.4933 26.0941 22.3354 26.6309C22.1776 27.1676 21.9625 27.6116 21.6902 27.9629C21.4178 28.3141 21.0982 28.5766 20.7311 28.7503C20.368 28.92 19.9793 29.0048 19.5649 29.0048C19.1505 29.0048 18.7617 28.92 18.3986 28.7503C18.0356 28.5766 17.7178 28.3141 17.4455 27.9629C17.1732 27.6116 16.9581 27.1676 16.8002 26.6309C16.6463 26.0941 16.5694 25.4587 16.5694 24.7247C16.5694 23.9906 16.6463 23.3552 16.8002 22.8184C16.9581 22.2817 17.1732 21.8377 17.4455 21.4864C17.7178 21.1352 18.0356 20.8747 18.3986 20.705C18.7617 20.5313 19.1505 20.4445 19.5649 20.4445C19.9793 20.4445 20.368 20.5313 20.7311 20.705C21.0982 20.8747 21.4178 21.1352 21.6902 21.4864C21.9625 21.8377 22.1776 22.2817 22.3354 22.8184C22.4933 23.3552 22.5722 23.9906 22.5722 24.7247ZM21.9802 24.7247C21.9802 24.0458 21.9151 23.4657 21.7849 22.9842C21.6546 22.5027 21.479 22.11 21.258 21.8061C21.0409 21.4983 20.7844 21.2733 20.4884 21.1312C20.1964 20.9891 19.8885 20.9181 19.5649 20.9181C19.2413 20.9181 18.9334 20.9891 18.6414 21.1312C18.3493 21.2733 18.0928 21.4983 17.8718 21.8061C17.6508 22.11 17.4751 22.5027 17.3449 22.9842C17.2146 23.4657 17.1495 24.0458 17.1495 24.7247C17.1495 25.4074 17.2146 25.9896 17.3449 26.4711C17.4751 26.9486 17.6508 27.3413 17.8718 27.6491C18.0928 27.953 18.3493 28.176 18.6414 28.3181C18.9334 28.4562 19.2413 28.5253 19.5649 28.5253C19.8885 28.5253 20.1964 28.4562 20.4884 28.3181C20.7844 28.176 21.0409 27.953 21.258 27.6491C21.479 27.3413 21.6546 26.9486 21.7849 26.4711C21.9151 25.9896 21.9802 25.4074 21.9802 24.7247ZM22.5722 38.7247C22.5722 39.4587 22.4933 40.0941 22.3354 40.6309C22.1776 41.1676 21.9625 41.6116 21.6902 41.9629C21.4178 42.3141 21.0982 42.5766 20.7311 42.7503C20.368 42.92 19.9793 43.0048 19.5649 43.0048C19.1505 43.0048 18.7617 42.92 18.3986 42.7503C18.0356 42.5766 17.7178 42.3141 17.4455 41.9629C17.1732 41.6116 16.9581 41.1676 16.8002 40.6309C16.6463 40.0941 16.5694 39.4587 16.5694 38.7247C16.5694 37.9906 16.6463 37.3552 16.8002 36.8184C16.9581 36.2817 17.1732 35.8377 17.4455 35.4864C17.7178 35.1352 18.0356 34.8747 18.3986 34.705C18.7617 34.5313 19.1505 34.4445 19.5649 34.4445C19.9793 34.4445 20.368 34.5313 20.7311 34.705C21.0982 34.8747 21.4178 35.1352 21.6902 35.4864C21.9625 35.8377 22.1776 36.2817 22.3354 36.8184C22.4933 37.3552 22.5722 37.9906 22.5722 38.7247ZM21.9802 38.7247C21.9802 38.0458 21.9151 37.4657 21.7849 36.9842C21.6546 36.5027 21.479 36.11 21.258 35.8061C21.0409 35.4983 20.7844 35.2733 20.4884 35.1312C20.1964 34.9891 19.8885 34.9181 19.5649 34.9181C19.2413 34.9181 18.9334 34.9891 18.6414 35.1312C18.3493 35.2733 18.0928 35.4983 17.8718 35.8061C17.6508 36.11 17.4751 36.5027 17.3449 36.9842C17.2146 37.4657 17.1495 38.0458 17.1495 38.7247C17.1495 39.4074 17.2146 39.9896 17.3449 40.4711C17.4751 40.9486 17.6508 41.3413 17.8718 41.6491C18.0928 41.953 18.3493 42.176 18.6414 42.3181C18.9334 42.4562 19.2413 42.5253 19.5649 42.5253C19.8885 42.5253 20.1964 42.4562 20.4884 42.3181C20.7844 42.176 21.0409 41.953 21.258 41.6491C21.479 41.3413 21.6546 40.9486 21.7849 40.4711C21.9151 39.9896 21.9802 39.4074 21.9802 38.7247Z" fill="black"/>
<path opacity="0.7" d="M16.3394 16.2051C16.3394 16.2051 16.0536 16.3074 15.8335 16.0801C15.8335 16.0801 15.8513 16.1555 15.882 16.2463C15.9315 16.3435 16.0094 16.422 16.1046 16.4708C16.1998 16.5197 16.3074 16.5363 16.4122 16.5183C16.5171 16.5003 16.6137 16.4487 16.6886 16.3707C16.7634 16.2927 16.8126 16.1923 16.8292 16.0838C16.7763 16.1132 16.4004 16.3002 16.3394 16.2051ZM16.3286 16.3416C16.2728 16.3416 16.2297 16.2984 16.2297 16.2734C16.2297 16.2483 16.2739 16.2506 16.3286 16.2506C16.3832 16.2506 16.4275 16.2483 16.4275 16.2734C16.4275 16.2984 16.3829 16.3416 16.3283 16.3416H16.3286Z" fill="url(#paint19_linear_79:1789)"/>
<path opacity="0.7" d="M16.5972 16.6719C16.5972 16.6719 17.1861 16.3303 17.5491 15.3296L17.7252 15.4434C17.7252 15.4434 17.4338 16.7186 16.7025 17.0127L16.5972 16.6719Z" fill="url(#paint20_linear_79:1789)"/>
<path opacity="0.7" d="M14.9759 15.4546C15.0427 15.4546 15.0968 15.3986 15.0968 15.3296C15.0968 15.2606 15.0427 15.2046 14.9759 15.2046C14.9091 15.2046 14.855 15.2606 14.855 15.3296C14.855 15.3986 14.9091 15.4546 14.9759 15.4546Z" fill="url(#paint21_linear_79:1789)"/>
<path opacity="0.7" d="M16.0595 16.6719C16.0595 16.6719 15.4706 16.3303 15.1076 15.3296L14.9326 15.4431C14.9326 15.4431 15.224 16.7183 15.9553 17.0124L16.0595 16.6719Z" fill="url(#paint22_linear_79:1789)"/>
<path opacity="0.7" d="M16.1637 20.8219H15.8447V20.8049C15.8447 20.7612 15.8615 20.7193 15.8914 20.6884C15.9213 20.6575 15.9618 20.6401 16.0041 20.6401C16.0463 20.6401 16.0869 20.6575 16.1168 20.6884C16.1466 20.7193 16.1634 20.7612 16.1634 20.8049L16.1637 20.8219Z" fill="url(#paint23_linear_79:1789)"/>
<path opacity="0.7" d="M16.8122 20.8219H16.4927V20.8049C16.4927 20.7612 16.5095 20.7193 16.5394 20.6884C16.5692 20.6575 16.6098 20.6401 16.652 20.6401C16.6943 20.6401 16.7348 20.6575 16.7647 20.6884C16.7946 20.7193 16.8114 20.7612 16.8114 20.8049L16.8122 20.8219Z" fill="url(#paint24_linear_79:1789)"/>
</g>
<path d="M16.8195 17.6929H15.8369V18.4438H16.8195V17.6929Z" fill="#4D8AF0"/>
<path opacity="0.1" d="M15.8369 17.8916C15.8369 17.8916 16.2035 17.9357 16.3281 17.9357C16.4526 17.9357 16.8192 17.8916 16.8192 17.8916V17.7041H15.8369V17.8916Z" fill="black"/>
<path d="M16.8192 17.8808C16.8192 17.8808 16.4526 17.9249 16.3281 17.9249C16.2035 17.9249 15.8369 17.8808 15.8369 17.8808V17.1411C15.8369 17.0064 15.8887 16.8773 15.9808 16.782C16.0729 16.6868 16.1978 16.6333 16.3281 16.6333C16.4583 16.6333 16.5833 16.6868 16.6754 16.782C16.7675 16.8773 16.8192 17.0064 16.8192 17.1411V17.8808Z" fill="#6C63FF"/>
<path d="M16.2107 16.3789H16.4456V16.6549C16.4456 16.6871 16.4332 16.718 16.4111 16.7408C16.3891 16.7636 16.3592 16.7764 16.328 16.7764C16.2968 16.7764 16.2669 16.7636 16.2449 16.7408C16.2228 16.718 16.2104 16.6871 16.2104 16.6549V16.3789H16.2107Z" fill="#FDB797"/>
<path d="M16.1893 18.1787H15.8369V20.6519H16.1893V18.1787Z" fill="#4D8AF0"/>
<path d="M16.8192 18.1787H16.4668V20.6519H16.8192V18.1787Z" fill="#4D8AF0"/>
<path opacity="0.1" d="M16.2109 16.563C16.2881 16.5826 16.3687 16.5826 16.4458 16.563V16.3901H16.2109V16.563Z" fill="black"/>
<path d="M16.328 16.4677C16.6111 16.4677 16.8406 16.2304 16.8406 15.9377C16.8406 15.645 16.6111 15.4077 16.328 15.4077C16.0449 15.4077 15.8154 15.645 15.8154 15.9377C15.8154 16.2304 16.0449 16.4677 16.328 16.4677Z" fill="#814E4D"/>
<path d="M16.3281 16.5664C16.5993 16.5664 16.8192 16.3391 16.8192 16.0586C16.8192 15.7781 16.5993 15.5508 16.3281 15.5508C16.0568 15.5508 15.8369 15.7781 15.8369 16.0586C15.8369 16.3391 16.0568 16.5664 16.3281 16.5664Z" fill="#FDB797"/>
<path opacity="0.1" d="M16.0307 15.8043C16.0576 15.8193 16.0871 15.8285 16.1176 15.8314C16.2434 15.8492 16.3715 15.8343 16.4904 15.7882C16.5015 15.8132 16.5178 15.8353 16.5381 15.8531C16.5584 15.8708 16.5822 15.8838 16.6079 15.891C16.6592 15.905 16.7123 15.9111 16.7653 15.9092C16.777 15.9106 16.7889 15.9082 16.7993 15.9025C16.823 15.8861 16.8116 15.8484 16.7976 15.8225L16.7291 15.6943C16.7109 15.6552 16.6864 15.6197 16.6567 15.5891C16.6152 15.5554 16.5659 15.5335 16.5138 15.5258C16.3922 15.5008 16.2668 15.5051 16.1471 15.5384C16.019 15.5736 15.8552 15.6946 16.0307 15.8043Z" fill="black"/>
<path d="M16.0307 15.7931C16.0576 15.8081 16.0871 15.8173 16.1176 15.8202C16.2434 15.8379 16.3715 15.8231 16.4904 15.7769C16.5015 15.8019 16.5178 15.8241 16.5381 15.8418C16.5584 15.8596 16.5822 15.8726 16.6079 15.8798C16.6592 15.8938 16.7123 15.8999 16.7653 15.8979C16.777 15.8993 16.7889 15.897 16.7993 15.8913C16.823 15.8749 16.8116 15.8371 16.7976 15.8112L16.7291 15.683C16.7109 15.644 16.6864 15.6084 16.6567 15.5779C16.6152 15.5442 16.5659 15.5223 16.5138 15.5145C16.3922 15.4895 16.2668 15.4939 16.1471 15.5272C16.019 15.5623 15.8552 15.6833 16.0307 15.7931Z" fill="#814E4D"/>
<path d="M16.8141 16.1414C16.8377 16.1414 16.8567 16.1044 16.8567 16.0587C16.8567 16.0131 16.8377 15.9761 16.8141 15.9761C16.7906 15.9761 16.7715 16.0131 16.7715 16.0587C16.7715 16.1044 16.7906 16.1414 16.8141 16.1414Z" fill="#FDB797"/>
<path d="M15.8424 16.1414C15.866 16.1414 15.8851 16.1044 15.8851 16.0587C15.8851 16.0131 15.866 15.9761 15.8424 15.9761C15.8189 15.9761 15.7998 16.0131 15.7998 16.0587C15.7998 16.1044 15.8189 16.1414 15.8424 16.1414Z" fill="#FDB797"/>
<path d="M17.642 15.5292C17.7069 15.5292 17.7595 15.4748 17.7595 15.4077C17.7595 15.3406 17.7069 15.2861 17.642 15.2861C17.577 15.2861 17.5244 15.3406 17.5244 15.4077C17.5244 15.4748 17.577 15.5292 17.642 15.5292Z" fill="#FDB797"/>
<path d="M16.3393 16.2573C16.3393 16.2573 16.0607 16.3567 15.8481 16.1357C15.8481 16.1357 15.8654 16.2089 15.8952 16.2973C15.9434 16.3916 16.019 16.4678 16.1114 16.5151C16.2038 16.5624 16.3082 16.5785 16.4099 16.561C16.5116 16.5436 16.6054 16.4934 16.6781 16.4178C16.7507 16.3421 16.7985 16.2448 16.8146 16.1395C16.7636 16.1683 16.3986 16.3495 16.3393 16.2573ZM16.3287 16.3898C16.2755 16.3898 16.2326 16.348 16.2326 16.3235C16.2326 16.2991 16.2755 16.3014 16.3287 16.3014C16.3819 16.3014 16.4248 16.2991 16.4248 16.3235C16.4248 16.348 16.3814 16.3898 16.3284 16.3898H16.3287Z" fill="#814E4D"/>
<path d="M16.5894 16.7111C16.5894 16.7111 17.1613 16.3793 17.5137 15.4077L17.6845 15.518C17.6845 15.518 17.4015 16.7567 16.6913 17.0418L16.5894 16.7111Z" fill="#6C63FF"/>
<path d="M15.015 15.5292C15.08 15.5292 15.1326 15.4748 15.1326 15.4077C15.1326 15.3406 15.08 15.2861 15.015 15.2861C14.9501 15.2861 14.8975 15.3406 14.8975 15.4077C14.8975 15.4748 14.9501 15.5292 15.015 15.5292Z" fill="#FDB797"/>
<path d="M16.0673 16.7111C16.0673 16.7111 15.4954 16.3793 15.1429 15.4077L14.9722 15.518C14.9722 15.518 15.2552 16.7567 15.9653 17.0418L16.0673 16.7111Z" fill="#6C63FF"/>
<path d="M16.013 20.564C16.0541 20.564 16.0935 20.5808 16.1225 20.6109C16.1516 20.6409 16.1679 20.6816 16.1679 20.7241V20.7397H15.8584V20.7233C15.8586 20.681 15.875 20.6405 15.904 20.6107C15.9329 20.5808 15.9721 20.564 16.013 20.564Z" fill="#333333"/>
<path d="M16.6432 20.564C16.6843 20.564 16.7237 20.5808 16.7527 20.6109C16.7818 20.6409 16.7981 20.6816 16.7981 20.7241V20.7397H16.4883V20.7233C16.4885 20.6809 16.5049 20.6404 16.5339 20.6106C16.563 20.5807 16.6022 20.564 16.6432 20.564Z" fill="#333333"/>
</g>
<path d="M29.045 11.346C29.5563 11.4413 29.9767 11.697 30.306 12.113C30.6353 12.529 30.8 13.0057 30.8 13.543C30.8 14.0283 30.6787 14.4573 30.436 14.83C30.202 15.194 29.8597 15.48 29.409 15.688C28.9583 15.896 28.4253 16 27.81 16H23.897V6.926H27.641C28.2563 6.926 28.785 7.02567 29.227 7.225C29.6777 7.42433 30.0157 7.70167 30.241 8.057C30.475 8.41233 30.592 8.81533 30.592 9.266C30.592 9.79467 30.449 10.2367 30.163 10.592C29.8857 10.9473 29.513 11.1987 29.045 11.346ZM25.717 10.67H27.381C27.8143 10.67 28.148 10.5747 28.382 10.384C28.616 10.1847 28.733 9.903 28.733 9.539C28.733 9.175 28.616 8.89333 28.382 8.694C28.148 8.49467 27.8143 8.395 27.381 8.395H25.717V10.67ZM27.55 14.518C27.992 14.518 28.3343 14.414 28.577 14.206C28.8283 13.998 28.954 13.7033 28.954 13.322C28.954 12.932 28.824 12.6287 28.564 12.412C28.304 12.1867 27.953 12.074 27.511 12.074H25.717V14.518H27.55ZM33.1735 7.94C32.8528 7.94 32.5842 7.84033 32.3675 7.641C32.1595 7.433 32.0555 7.17733 32.0555 6.874C32.0555 6.57067 32.1595 6.31933 32.3675 6.12C32.5842 5.912 32.8528 5.808 33.1735 5.808C33.4942 5.808 33.7585 5.912 33.9665 6.12C34.1832 6.31933 34.2915 6.57067 34.2915 6.874C34.2915 7.17733 34.1832 7.433 33.9665 7.641C33.7585 7.84033 33.4942 7.94 33.1735 7.94ZM34.0705 8.798V16H32.2505V8.798H34.0705ZM37.9877 10.293V13.777C37.9877 14.0197 38.044 14.1973 38.1567 14.31C38.278 14.414 38.4773 14.466 38.7547 14.466H39.5997V16H38.4557C36.9217 16 36.1547 15.2547 36.1547 13.764V10.293H35.2967V8.798H36.1547V7.017H37.9877V8.798H39.5997V10.293H37.9877ZM50.8017 6.926V16H48.9817V10.098L46.5507 16H45.1727L42.7287 10.098V16H40.9087V6.926H42.9757L45.8617 13.673L48.7477 6.926H50.8017ZM55.7991 16.117C55.1058 16.117 54.4818 15.9653 53.9271 15.662C53.3724 15.35 52.9348 14.9123 52.6141 14.349C52.3021 13.7857 52.1461 13.1357 52.1461 12.399C52.1461 11.6623 52.3064 11.0123 52.6271 10.449C52.9564 9.88567 53.4028 9.45233 53.9661 9.149C54.5294 8.837 55.1578 8.681 55.8511 8.681C56.5444 8.681 57.1728 8.837 57.7361 9.149C58.2994 9.45233 58.7414 9.88567 59.0621 10.449C59.3914 11.0123 59.5561 11.6623 59.5561 12.399C59.5561 13.1357 59.3871 13.7857 59.0491 14.349C58.7198 14.9123 58.2691 15.35 57.6971 15.662C57.1338 15.9653 56.5011 16.117 55.7991 16.117ZM55.7991 14.531C56.1284 14.531 56.4361 14.453 56.7221 14.297C57.0168 14.1323 57.2508 13.8897 57.4241 13.569C57.5974 13.2483 57.6841 12.8583 57.6841 12.399C57.6841 11.7143 57.5021 11.19 57.1381 10.826C56.7828 10.4533 56.3451 10.267 55.8251 10.267C55.3051 10.267 54.8674 10.4533 54.5121 10.826C54.1654 11.19 53.9921 11.7143 53.9921 12.399C53.9921 13.0837 54.1611 13.6123 54.4991 13.985C54.8458 14.349 55.2791 14.531 55.7991 14.531ZM64.8821 8.694C65.7401 8.694 66.4335 8.967 66.9621 9.513C67.4908 10.0503 67.7551 10.8043 67.7551 11.775V16H65.9351V12.022C65.9351 11.45 65.7921 11.0123 65.5061 10.709C65.2201 10.397 64.8301 10.241 64.3361 10.241C63.8335 10.241 63.4348 10.397 63.1401 10.709C62.8541 11.0123 62.7111 11.45 62.7111 12.022V16H60.8911V8.798H62.7111V9.695C62.9538 9.383 63.2615 9.14033 63.6341 8.967C64.0155 8.785 64.4315 8.694 64.8821 8.694ZM76.1809 12.243C76.1809 12.503 76.1635 12.737 76.1289 12.945H70.8639C70.9072 13.465 71.0892 13.8723 71.4099 14.167C71.7305 14.4617 72.1249 14.609 72.5929 14.609C73.2689 14.609 73.7499 14.3187 74.0359 13.738H75.9989C75.7909 14.4313 75.3922 15.0033 74.8029 15.454C74.2135 15.896 73.4899 16.117 72.6319 16.117C71.9385 16.117 71.3145 15.9653 70.7599 15.662C70.2139 15.35 69.7849 14.9123 69.4729 14.349C69.1695 13.7857 69.0179 13.1357 69.0179 12.399C69.0179 11.6537 69.1695 10.9993 69.4729 10.436C69.7762 9.87267 70.2009 9.43933 70.7469 9.136C71.2929 8.83267 71.9212 8.681 72.6319 8.681C73.3165 8.681 73.9275 8.82833 74.4649 9.123C75.0109 9.41767 75.4312 9.838 75.7259 10.384C76.0292 10.9213 76.1809 11.541 76.1809 12.243ZM74.2959 11.723C74.2872 11.255 74.1182 10.8823 73.7889 10.605C73.4595 10.319 73.0565 10.176 72.5799 10.176C72.1292 10.176 71.7479 10.3147 71.4359 10.592C71.1325 10.8607 70.9462 11.2377 70.8769 11.723H74.2959ZM84.3993 8.798L79.9403 19.406H78.0033L79.5633 15.818L76.6773 8.798H78.7183L80.5773 13.829L82.4623 8.798H84.3993Z" fill="white"/>
<defs>
<linearGradient id="paint0_linear_79:1789" x1="3.70872" y1="3.92927" x2="3.70872" y2="3.2417" gradientUnits="userSpaceOnUse">
<stop stop-color="#808080" stop-opacity="0.25"/>
<stop offset="0.54" stop-color="#808080" stop-opacity="0.12"/>
<stop offset="1" stop-color="#808080" stop-opacity="0.1"/>
</linearGradient>
<linearGradient id="paint1_linear_79:1789" x1="2552.02" y1="1314.91" x2="2552.02" y2="431.256" gradientUnits="userSpaceOnUse">
<stop stop-color="#808080" stop-opacity="0.25"/>
<stop offset="0.54" stop-color="#808080" stop-opacity="0.12"/>
<stop offset="1" stop-color="#808080" stop-opacity="0.1"/>
</linearGradient>
<linearGradient id="paint2_linear_79:1789" x1="211.312" y1="150.483" x2="211.312" y2="128.978" gradientUnits="userSpaceOnUse">
<stop stop-color="#808080" stop-opacity="0.25"/>
<stop offset="0.54" stop-color="#808080" stop-opacity="0.12"/>
<stop offset="1" stop-color="#808080" stop-opacity="0.1"/>
</linearGradient>
<linearGradient id="paint3_linear_79:1789" x1="264.309" y1="233.873" x2="264.309" y2="187.568" gradientUnits="userSpaceOnUse">
<stop stop-color="#808080" stop-opacity="0.25"/>
<stop offset="0.54" stop-color="#808080" stop-opacity="0.12"/>
<stop offset="1" stop-color="#808080" stop-opacity="0.1"/>
</linearGradient>
<linearGradient id="paint4_linear_79:1789" x1="3846.57" y1="1259.03" x2="3846.57" y2="902.426" gradientUnits="userSpaceOnUse">
<stop stop-color="#808080" stop-opacity="0.25"/>
<stop offset="0.54" stop-color="#808080" stop-opacity="0.12"/>
<stop offset="1" stop-color="#808080" stop-opacity="0.1"/>
</linearGradient>
<linearGradient id="paint5_linear_79:1789" x1="590.493" y1="502.677" x2="627.243" y2="502.677" gradientUnits="userSpaceOnUse">
<stop stop-color="#808080" stop-opacity="0.25"/>
<stop offset="0.54" stop-color="#808080" stop-opacity="0.12"/>
<stop offset="1" stop-color="#808080" stop-opacity="0.1"/>
</linearGradient>
<linearGradient id="paint6_linear_79:1789" x1="852.561" y1="185.786" x2="889.312" y2="185.786" gradientUnits="userSpaceOnUse">
<stop stop-color="#808080" stop-opacity="0.25"/>
<stop offset="0.54" stop-color="#808080" stop-opacity="0.12"/>
<stop offset="1" stop-color="#808080" stop-opacity="0.1"/>
</linearGradient>
<linearGradient id="paint7_linear_79:1789" x1="852.561" y1="927.428" x2="889.312" y2="927.428" gradientUnits="userSpaceOnUse">
<stop stop-color="#808080" stop-opacity="0.25"/>
<stop offset="0.54" stop-color="#808080" stop-opacity="0.12"/>
<stop offset="1" stop-color="#808080" stop-opacity="0.1"/>
</linearGradient>
<linearGradient id="paint8_linear_79:1789" x1="219.518" y1="286.281" x2="221.617" y2="286.281" gradientUnits="userSpaceOnUse">
<stop stop-color="#808080" stop-opacity="0.25"/>
<stop offset="0.54" stop-color="#808080" stop-opacity="0.12"/>
<stop offset="1" stop-color="#808080" stop-opacity="0.1"/>
</linearGradient>
<linearGradient id="paint9_linear_79:1789" x1="221.987" y1="1738.79" x2="226.717" y2="1738.79" gradientUnits="userSpaceOnUse">
<stop stop-color="#808080" stop-opacity="0.25"/>
<stop offset="0.54" stop-color="#808080" stop-opacity="0.12"/>
<stop offset="1" stop-color="#808080" stop-opacity="0.1"/>
</linearGradient>
<linearGradient id="paint10_linear_79:1789" x1="231.093" y1="1738.79" x2="235.823" y2="1738.79" gradientUnits="userSpaceOnUse">
<stop stop-color="#808080" stop-opacity="0.25"/>
<stop offset="0.54" stop-color="#808080" stop-opacity="0.12"/>
<stop offset="1" stop-color="#808080" stop-opacity="0.1"/>
</linearGradient>
<linearGradient id="paint11_linear_79:1789" x1="219.518" y1="143.465" x2="221.617" y2="143.465" gradientUnits="userSpaceOnUse">
<stop stop-color="#808080" stop-opacity="0.25"/>
<stop offset="0.54" stop-color="#808080" stop-opacity="0.12"/>
<stop offset="1" stop-color="#808080" stop-opacity="0.1"/>
</linearGradient>
<linearGradient id="paint12_linear_79:1789" x1="614.634" y1="617.004" x2="654.651" y2="617.004" gradientUnits="userSpaceOnUse">
<stop stop-color="#808080" stop-opacity="0.25"/>
<stop offset="0.54" stop-color="#808080" stop-opacity="0.12"/>
<stop offset="1" stop-color="#808080" stop-opacity="0.1"/>
</linearGradient>
<linearGradient id="paint13_linear_79:1789" x1="590.493" y1="596.619" x2="627.243" y2="596.619" gradientUnits="userSpaceOnUse">
<stop stop-color="#808080" stop-opacity="0.25"/>
<stop offset="0.54" stop-color="#808080" stop-opacity="0.12"/>
<stop offset="1" stop-color="#808080" stop-opacity="0.1"/>
</linearGradient>
<linearGradient id="paint14_linear_79:1789" x1="750.657" y1="274.41" x2="778.701" y2="274.41" gradientUnits="userSpaceOnUse">
<stop stop-color="#808080" stop-opacity="0.25"/>
<stop offset="0.54" stop-color="#808080" stop-opacity="0.12"/>
<stop offset="1" stop-color="#808080" stop-opacity="0.1"/>
</linearGradient>
<linearGradient id="paint15_linear_79:1789" x1="750.657" y1="274.237" x2="778.701" y2="274.237" gradientUnits="userSpaceOnUse">
<stop stop-color="#808080" stop-opacity="0.25"/>
<stop offset="0.54" stop-color="#808080" stop-opacity="0.12"/>
<stop offset="1" stop-color="#808080" stop-opacity="0.1"/>
</linearGradient>
<linearGradient id="paint16_linear_79:1789" x1="69.8232" y1="110.638" x2="70.1014" y2="110.638" gradientUnits="userSpaceOnUse">
<stop stop-color="#808080" stop-opacity="0.25"/>
<stop offset="0.54" stop-color="#808080" stop-opacity="0.12"/>
<stop offset="1" stop-color="#808080" stop-opacity="0.1"/>
</linearGradient>
<linearGradient id="paint17_linear_79:1789" x1="65.6611" y1="110.638" x2="65.9393" y2="110.638" gradientUnits="userSpaceOnUse">
<stop stop-color="#808080" stop-opacity="0.25"/>
<stop offset="0.54" stop-color="#808080" stop-opacity="0.12"/>
<stop offset="1" stop-color="#808080" stop-opacity="0.1"/>
</linearGradient>
<linearGradient id="paint18_linear_79:1789" x1="169.981" y1="148.267" x2="172.082" y2="148.267" gradientUnits="userSpaceOnUse">
<stop stop-color="#808080" stop-opacity="0.25"/>
<stop offset="0.54" stop-color="#808080" stop-opacity="0.12"/>
<stop offset="1" stop-color="#808080" stop-opacity="0.1"/>
</linearGradient>
<linearGradient id="paint19_linear_79:1789" x1="839.607" y1="306.125" x2="875.143" y2="306.125" gradientUnits="userSpaceOnUse">
<stop stop-color="#808080" stop-opacity="0.25"/>
<stop offset="0.54" stop-color="#808080" stop-opacity="0.12"/>
<stop offset="1" stop-color="#808080" stop-opacity="0.1"/>
</linearGradient>
<linearGradient id="paint20_linear_79:1789" x1="980.773" y1="1104.08" x2="1026.45" y2="1104.08" gradientUnits="userSpaceOnUse">
<stop stop-color="#808080" stop-opacity="0.25"/>
<stop offset="0.54" stop-color="#808080" stop-opacity="0.12"/>
<stop offset="1" stop-color="#808080" stop-opacity="0.1"/>
</linearGradient>
<linearGradient id="paint21_linear_79:1789" x1="143.793" y1="148.267" x2="145.894" y2="148.267" gradientUnits="userSpaceOnUse">
<stop stop-color="#808080" stop-opacity="0.25"/>
<stop offset="0.54" stop-color="#808080" stop-opacity="0.12"/>
<stop offset="1" stop-color="#808080" stop-opacity="0.1"/>
</linearGradient>
<linearGradient id="paint22_linear_79:1789" x1="910.789" y1="1103.89" x2="956.406" y2="1103.89" gradientUnits="userSpaceOnUse">
<stop stop-color="#808080" stop-opacity="0.25"/>
<stop offset="0.54" stop-color="#808080" stop-opacity="0.12"/>
<stop offset="1" stop-color="#808080" stop-opacity="0.1"/>
</linearGradient>
<linearGradient id="paint23_linear_79:1789" x1="279.881" y1="166.99" x2="283.533" y2="166.99" gradientUnits="userSpaceOnUse">
<stop stop-color="#808080" stop-opacity="0.25"/>
<stop offset="0.54" stop-color="#808080" stop-opacity="0.12"/>
<stop offset="1" stop-color="#808080" stop-opacity="0.1"/>
</linearGradient>
<linearGradient id="paint24_linear_79:1789" x1="288.433" y1="166.99" x2="292.091" y2="166.99" gradientUnits="userSpaceOnUse">
<stop stop-color="#808080" stop-opacity="0.25"/>
<stop offset="0.54" stop-color="#808080" stop-opacity="0.12"/>
<stop offset="1" stop-color="#808080" stop-opacity="0.1"/>
</linearGradient>
<clipPath id="clip0_79:1789">
<rect width="19" height="21" fill="white"/>
</clipPath>
</defs>
</svg>
