<svg width="25" height="30" viewBox="0 0 25 30" fill="none" xmlns="http://www.w3.org/2000/svg">
<path d="M7.7252 -8.64584e-06C5.68524 0.0151741 3.70694 1.57864 2.28481 4.32261C0.862678 7.06657 0.0798962 10.7797 0.108665 14.645C0.137433 18.5104 0.975396 22.2114 2.43821 24.9339C3.90102 27.6564 5.83099 29.1648 7.87095 29.1496L7.80036 14.5878L7.7252 -8.64584e-06Z" fill="#0C9311"/>
<path d="M17.1986 0.000723481C19.2867 0.0162638 21.2057 1.62537 22.6618 4.36959C24.1179 7.11381 24.9198 10.827 24.891 14.6924C24.8622 18.5578 24.0052 22.2587 22.5084 24.9809C21.0116 27.7032 18.9952 29.1659 16.9072 29.1504L17.0181 14.6338L17.1986 0.000723481Z" fill="#0C9311"/>
<rect x="7.57935" y="0.000488281" width="9.61937" height="29.1496" fill="white"/>
</svg>
