<svg width="27" height="27" viewBox="0 0 27 27" fill="none" xmlns="http://www.w3.org/2000/svg">
<g clip-path="url(#clip0_1:147)">
<path d="M4.62773 22.6826C5.03361 22.6826 5.36264 22.4582 5.36264 22.1814C5.36264 21.9046 5.03361 21.6802 4.62773 21.6802C4.22185 21.6802 3.89282 21.9046 3.89282 22.1814C3.89282 22.4582 4.22185 22.6826 4.62773 22.6826Z" fill="black"/>
<path d="M26.156 19.6885L25.8801 19.5265C25.859 19.5142 23.7509 18.2634 23.2269 16.7455L23.1101 16.4093L22.8941 16.6915C22.8873 16.7003 22.5878 17.0707 21.7495 17.5053C21.1289 13.9729 19.0179 9.75586 16.2436 7.95783C17.0368 8.02195 17.8324 7.95614 18.6002 7.67686C19.0626 7.50895 18.8631 6.75548 18.3965 6.92592C17.767 7.155 17.1363 7.21744 16.5069 7.18537C18.0522 5.76914 19.2655 3.59859 19.2655 2.0115C19.2655 1.63013 19.2655 0.920109 18.7002 0.920109C18.4732 0.920109 18.2897 1.06186 18.0362 1.25761C17.6472 1.55756 17.06 2.0115 16.1972 2.0115C15.8686 2.0115 15.267 1.66472 14.7835 1.38628C14.1992 1.05005 13.8259 0.84375 13.512 0.84375C12.9922 0.84375 12.2282 1.26394 11.5541 1.63477C11.2799 1.78537 10.9048 1.99209 10.8272 2.01192C9.85012 2.01192 9.28269 1.56136 8.90638 1.26309C8.68701 1.08844 8.52796 0.961875 8.31576 0.961875C7.75972 0.961875 7.75972 1.62886 7.75972 2.40131C7.75972 3.89222 8.89541 5.86027 10.3825 7.18284C9.44554 7.24992 8.52163 7.533 7.87236 8.16202C7.51377 8.5088 8.05715 9.05892 8.41447 8.71298C8.95405 8.18986 9.66154 7.96584 10.4184 7.92239C10.4399 7.99959 10.4661 8.07553 10.4981 8.1502C7.3273 10.4288 5.07491 15.8393 5.07491 19.4919C5.07491 19.8522 5.10276 20.1783 5.14579 20.4854C4.32819 20.1222 4.02993 19.8037 4.02402 19.7965L3.80633 19.5455L3.69918 19.8619C3.22541 21.2558 1.16582 22.4648 1.14515 22.4771L0.843506 22.6522L1.15021 22.818C1.25779 22.8762 1.36452 22.9272 1.4721 22.9825L1.27804 23.1171L1.38055 24.3996L9.41854 26.1562L12.4662 24.2068C12.7737 24.2085 13.0851 24.2093 13.4019 24.2093L16.9642 26.1562L25.0174 23.625V22.2712L24.8043 22.1434C24.9106 22.0759 25.0169 22.0071 25.1228 21.9362L25.4051 21.7477L25.3431 21.7173L25.7021 21.619L25.7628 20.2116L25.5553 20.0644C25.6658 19.9981 25.7759 19.9306 25.8864 19.8606L26.156 19.6885ZM8.52711 2.40131C8.52711 2.214 8.52965 2.06803 8.53344 1.95455C8.59799 2.00517 8.67308 2.06044 8.75324 2.11739C8.99919 2.70633 9.46452 3.5543 10.2534 4.08839C11.2119 4.73808 11.0845 3.99136 11.5958 3.30961C12.1071 2.62828 12.4531 2.27138 13.3095 4.02384C13.6828 4.78786 14.3051 2.65275 14.8966 2.34098C15.0531 2.4262 15.2092 2.50552 15.3623 2.57302C16.4229 4.29764 16.9144 3.75975 17.8565 2.32622C18.1155 2.17434 18.3281 2.0115 18.4973 1.88114C18.4981 1.92037 18.499 1.96383 18.499 2.01234C18.499 3.36656 17.3924 5.30888 16.0373 6.57577C15.9734 6.41317 15.8817 6.26288 15.7665 6.13153C15.2193 5.5118 14.3642 6.19903 13.9588 6.65002C13.2395 6.41883 12.0675 5.78222 11.3039 6.14672C11.1137 6.23494 10.9391 6.35332 10.7867 6.4973C9.53793 5.35908 8.52711 3.71587 8.52711 2.40131ZM15.3632 7.03097C15.174 6.99086 14.9859 6.94585 14.7991 6.89597C15.0345 6.69305 15.2505 6.62217 15.3412 6.92381C15.3509 6.95672 15.3568 6.99427 15.3632 7.03097ZM12.1569 7.29295C12.0173 7.26638 11.8738 7.24233 11.7262 7.22334C11.6142 7.15317 11.5046 7.0793 11.3976 7.00186C11.7831 6.74325 12.448 6.88078 13.0834 7.09636C12.7699 7.128 12.4607 7.19634 12.1569 7.29295ZM12.3485 8.4067C12.1122 8.46577 11.8549 8.44214 11.6325 8.35355C11.7228 8.30588 11.8139 8.26453 11.9051 8.22277C12.0527 8.29406 12.2004 8.35355 12.3485 8.4067ZM4.54504 23.7849C3.53882 23.4935 2.56246 23.1074 1.62904 22.6319C2.20152 22.2556 3.44858 21.3456 3.95568 20.2521C4.3033 20.5251 5.10571 21.0229 6.66833 21.4051C6.64176 21.4481 6.60927 21.4941 6.57805 21.5392C5.24408 21.1899 4.48555 20.7482 4.47332 20.7406L4.28938 20.631L4.20121 20.828C4.08519 21.0862 3.81308 21.125 3.66163 21.125C3.61944 21.125 3.59118 21.122 3.58738 21.1216L3.43677 21.0997L3.38193 21.2439C3.26971 21.5384 2.80902 21.9232 2.64027 22.0468L2.35846 22.2535L2.68077 22.3855C2.80058 22.4345 2.83307 22.4796 2.83476 22.4914C2.83897 22.5205 2.78793 22.5973 2.73351 22.6416L2.48797 22.8395L2.77358 22.9715C3.35872 23.2415 4.02149 23.4651 4.68426 23.6495C4.63152 23.7014 4.58596 23.7457 4.54504 23.7849ZM7.94704 22.213C8.53682 22.2957 9.1903 22.348 9.90411 22.348H9.90454C10.053 22.348 10.2036 22.3455 10.3572 22.3408C10.3674 22.3726 10.3821 22.4029 10.4007 22.4307C10.4382 22.4876 10.4888 22.5349 10.553 22.5716L9.47633 23.4917C9.45581 23.4908 9.43528 23.4904 9.41474 23.4904C8.93507 23.4904 8.57732 23.6668 8.40561 23.9806C7.75507 23.8977 7.10754 23.7926 6.46415 23.6655C6.98134 23.2053 7.4762 22.7205 7.94704 22.213ZM3.15918 22.718C3.20137 22.6382 3.22879 22.5416 3.21402 22.4362C3.2 22.341 3.15438 22.2533 3.08451 22.1873C3.27393 22.0248 3.53507 21.7742 3.67851 21.5148C4.00462 21.5101 4.27377 21.3865 4.44337 21.168C4.72897 21.3173 5.37233 21.619 6.32282 21.8805C5.93427 22.3678 5.41072 22.9205 5.00362 23.3314C4.36912 23.1635 3.72997 22.961 3.15918 22.718ZM9.17132 24.4936L9.08483 24.4941C8.7216 24.4941 7.51799 24.4645 5.92794 24.1334C5.98363 24.0861 6.04143 24.0376 6.09501 23.9912C7.3851 24.2608 8.42544 24.3764 8.50349 24.3852L8.6579 24.4017L8.70557 24.2519C8.80977 23.9287 9.1941 23.8811 9.41432 23.8811C9.47465 23.8811 9.51472 23.8849 9.51937 23.8853L9.60121 23.8942L11.4714 22.2961L10.9715 22.2796C10.8044 22.2737 10.7339 22.2362 10.7166 22.2105L10.8225 21.9333L10.5298 21.9455C10.3163 21.9548 10.1079 21.9594 9.90411 21.9594H9.90369C9.31476 21.9594 8.76843 21.9206 8.26344 21.8595L8.38072 21.7211C9.39997 21.8573 10.6205 21.9413 12.0941 21.9307C11.7422 22.4243 10.8647 23.4735 9.17132 24.4936ZM13.4002 22.6606V23.4305C13.1601 23.4305 12.9264 23.4297 12.6978 23.428L12.629 22.5615L12.0578 22.6079C12.4425 22.1531 12.6066 21.8498 12.6214 21.8223L12.7762 21.5295L12.4493 21.5355C9.31982 21.5928 7.27879 21.2199 5.99038 20.8056C5.8963 20.4251 5.84188 19.9948 5.84188 19.4923C5.84188 16.0654 8.03183 10.8856 10.9394 8.78639C11.4545 9.28463 12.2358 9.50273 12.9783 9.018C13.1412 8.91169 13.2829 8.77247 13.4158 8.62439C13.4474 8.62523 13.4799 8.63241 13.512 8.63241C13.6183 8.63241 13.7263 8.62355 13.8339 8.61005C13.9701 8.66447 14.1035 8.71931 14.2271 8.77373C14.819 9.03445 15.3244 8.87245 15.6695 8.51302C18.3328 10.1246 20.4666 14.3876 21.0281 17.8335C19.8106 18.3203 17.8792 18.7954 14.9151 18.8789C15.4999 18.5448 15.9386 17.9828 15.7808 17.2446C15.615 16.4641 14.9628 16.2447 14.2874 16.2089C14.2857 15.8423 14.2857 15.4765 14.2882 15.1099C14.4954 15.2014 14.6941 15.3069 14.8746 15.4195C15.1936 15.6199 15.4821 15.1006 15.1653 14.9002C14.8906 14.7275 14.5974 14.5861 14.2912 14.4788C14.2954 14.0543 14.2975 13.6308 14.2975 13.2072C14.2979 12.8191 13.7212 12.8191 13.7212 13.2072C13.7212 13.5797 13.7187 13.9518 13.7153 14.3235C13.4084 14.27 13.0949 14.2647 12.7864 14.3079C12.7362 14.0286 12.6754 13.7514 12.6041 13.4768C12.5088 13.103 11.9519 13.2612 12.0485 13.6363C12.1194 13.9058 12.1772 14.1742 12.2248 14.4463C12.2004 14.4555 12.1738 14.4602 12.1498 14.4712C11.3684 14.7804 10.8917 15.5689 11.4634 16.3042C11.7296 16.6468 12.0776 16.7851 12.4586 16.8311C12.4792 17.3386 12.4923 17.8466 12.5071 18.3537C12.2518 18.1879 12.0194 17.9753 11.8089 17.7504C11.5482 17.4753 11.1411 17.9002 11.4013 18.1748C11.7553 18.5515 12.127 18.8363 12.5299 19.0185C12.548 19.4518 12.5737 19.8863 12.6159 20.3175C12.6531 20.7001 13.2302 20.7022 13.1926 20.3175C13.1571 19.9446 13.1308 19.5708 13.1137 19.1966C13.3331 19.2345 13.5635 19.2443 13.8081 19.221C13.8356 19.6201 13.8676 20.0192 13.9132 20.4183C13.9393 20.647 14.1579 20.7368 14.319 20.6904L14.2832 21.519C14.0292 21.5418 13.7702 21.5629 13.5002 21.5806L13.1787 21.6017L13.35 21.8784C13.3673 21.9063 13.5618 22.2138 13.9959 22.6614H13.4002V22.6606ZM23.8998 19.8838C23.3695 20.1331 22.6987 20.3618 22.0153 20.5613C21.5951 20.1272 21.0576 19.548 20.6564 19.0342C21.5504 18.7633 22.0507 18.484 22.2764 18.3334C22.4549 18.4908 22.6911 18.5726 22.9708 18.5722C23.0637 18.5722 23.1459 18.5633 23.2092 18.5532C23.4117 18.8156 23.7382 19.1185 23.9424 19.2995C23.8458 19.3987 23.799 19.5083 23.8028 19.6269C23.8062 19.7281 23.8467 19.8142 23.8998 19.8838ZM20.8813 21.2701C20.9674 21.346 21.0564 21.4237 21.1471 21.5021C19.4368 21.9556 18.164 22.005 17.8868 22.0096C16.1158 20.9292 15.1978 19.7859 14.8439 19.2712C16.3259 19.2341 17.551 19.1 18.5728 18.9152C18.6144 18.9662 18.6564 19.0168 18.6989 19.0671C17.8777 19.195 17.05 19.2771 16.2196 19.313L15.8791 19.3274L16.0664 19.6138C16.066 19.6142 16.0281 19.6851 15.7766 19.734L15.3678 19.8138L17.3776 21.441L17.4713 21.4156C17.4734 21.4152 17.6506 21.3675 17.8649 21.3675C18.1741 21.3675 18.3855 21.4616 18.4918 21.6456L18.5593 21.762L18.6905 21.7388C19.4254 21.6048 20.156 21.4485 20.8813 21.2701ZM14.9341 20.0302L14.454 20.004C14.4317 19.7644 14.4093 19.5248 14.3924 19.2852C14.4768 19.4252 14.6498 19.6885 14.9341 20.0302ZM14.3401 18.4857C14.3125 17.9178 14.2957 17.3495 14.2899 16.7809C14.3591 16.7835 14.4275 16.7898 14.4924 16.7991C15.2383 16.9121 15.4332 17.7415 14.851 18.2081C14.6991 18.3284 14.5241 18.4165 14.3401 18.4857ZM18.7441 21.3342C18.5551 21.1009 18.2543 20.9786 17.8653 20.9786C17.7029 20.9786 17.5599 21.0005 17.4696 21.0182L16.2061 19.9943C16.3111 19.934 16.382 19.8577 16.4208 19.764C16.4304 19.7407 16.4377 19.7165 16.4428 19.6919C17.4443 19.637 18.288 19.537 19.0014 19.4147C19.3474 19.8007 19.8557 20.3331 20.5299 20.952C19.7017 21.149 19.0111 21.284 18.7441 21.3342ZM13.7128 16.7961C13.7208 17.4074 13.736 18.0204 13.7685 18.6313C13.7141 18.6397 13.6605 18.6502 13.6069 18.6557C13.4255 18.6764 13.2534 18.6612 13.0897 18.6199C13.069 18.0293 13.0555 17.4374 13.0332 16.8463C13.2601 16.8358 13.4901 16.8134 13.7128 16.7961ZM13.0041 16.2624C12.9777 15.7989 12.9341 15.3365 12.8733 14.8762C13.1529 14.8377 13.4373 14.8522 13.7115 14.9188C13.7085 15.3501 13.7078 15.7814 13.7094 16.2127C13.5242 16.2228 13.3483 16.2405 13.1935 16.2544C13.1304 16.2593 13.0673 16.262 13.0041 16.2624ZM12.4252 16.1886C12.3894 16.1789 12.3539 16.1713 12.3172 16.1591C12.1484 16.1019 11.9956 16.0054 11.8713 15.8777C11.511 15.5415 12.0055 15.2115 12.3172 15.055C12.3662 15.4305 12.3999 15.8093 12.4252 16.1886ZM17.0815 24.4008C15.2501 23.4651 14.2676 22.4252 13.8773 21.9434C14.1579 21.9223 14.4232 21.897 14.6861 21.8704L17.689 23.8195L24.2744 22.0105C20.8783 24.0574 17.5232 24.3692 17.0815 24.4008ZM22.5203 21.0722C22.4663 21.0182 22.4017 20.9541 22.3254 20.8769C23.0746 20.6499 23.7994 20.3867 24.3398 20.0973L24.6685 19.9205L24.3352 19.7509C24.2605 19.7125 24.1875 19.6421 24.1863 19.6155C24.1871 19.6054 24.2166 19.5514 24.3445 19.478L24.5883 19.3379L24.3715 19.1573C24.3647 19.1519 23.6885 18.5903 23.4509 18.2288L23.3725 18.1107L23.2379 18.1499C23.2366 18.1499 23.121 18.1832 22.9708 18.1832C22.7388 18.1837 22.565 18.1077 22.4536 17.9584L22.3304 17.7951L22.176 17.928C22.168 17.9347 21.69 18.3267 20.408 18.6971C20.3657 18.6363 20.3251 18.5744 20.286 18.5115C21.8406 18.0402 22.635 17.4698 22.9793 17.1577C23.5319 18.3532 24.8478 19.3164 25.419 19.694C24.5013 20.2493 23.5302 20.711 22.5203 21.0722Z" fill="#360732"/>
<path d="M18.7225 19.8775C18.3019 19.7632 17.8272 19.8413 17.661 20.0501C17.4961 20.2598 17.7045 20.5238 18.1247 20.639C18.5457 20.7533 19.0199 20.6749 19.1861 20.4656C19.3511 20.256 19.1435 19.9927 18.7225 19.8775Z" fill="black"/>
</g>
<defs>
<clipPath id="clip0_1:147">
<rect width="27" height="27" fill="white" transform="translate(-0.000244141)"/>
</clipPath>
</defs>
</svg>
