<svg width="21" height="23" viewBox="0 0 21 23" fill="none" xmlns="http://www.w3.org/2000/svg">
<path d="M17.0125 6.83301C17.0125 3.2207 14.0857 0.293945 10.4734 0.293945C6.86114 0.293945 3.93438 3.2207 3.93438 6.83301C3.93438 9.01621 5.00489 10.9516 6.6502 12.1381C6.63965 12.1434 6.63174 12.146 6.62647 12.1486C5.44786 12.647 4.39053 13.3615 3.48086 14.2738C2.5712 15.1835 1.85928 16.2435 1.36094 17.4247C0.873149 18.5796 0.612114 19.8057 0.585747 21.066C0.58311 21.1847 0.678032 21.2822 0.796684 21.2822H2.37608C2.48946 21.2822 2.58438 21.1899 2.58702 21.0766C2.63975 19.041 3.4545 17.1347 4.89678 15.6897C6.38653 14.1947 8.36407 13.3721 10.4734 13.3721C14.0857 13.3721 17.0125 10.4453 17.0125 6.83301ZM10.4734 11.3682C7.96856 11.3682 5.93829 9.33789 5.93829 6.83301C5.93829 4.32812 7.96856 2.29785 10.4734 2.29785C12.9783 2.29785 15.0086 4.32812 15.0086 6.83301C15.0086 9.33789 12.9783 11.3682 10.4734 11.3682ZM13.242 17.1953H20.2029C20.3189 17.1953 20.4139 17.1004 20.4139 16.9844V15.5078C20.4139 15.3918 20.3189 15.2969 20.2029 15.2969H15.5491L16.7937 13.7122C16.8227 13.6753 16.8385 13.6278 16.8385 13.583C16.8385 13.467 16.7436 13.3721 16.6275 13.3721H14.7133C14.5841 13.3721 14.4628 13.4327 14.3811 13.5329L12.5749 15.8295C12.4589 15.9771 12.3956 16.1617 12.3956 16.3516C12.3982 16.8183 12.7753 17.1953 13.242 17.1953ZM19.5701 18.8828H12.6092C12.4932 18.8828 12.3982 18.9777 12.3982 19.0938V20.5703C12.3982 20.6863 12.4932 20.7812 12.6092 20.7812H17.263L16.0185 22.3659C15.9895 22.4028 15.9736 22.4503 15.9736 22.4951C15.9736 22.6111 16.0686 22.7061 16.1846 22.7061H18.0988C18.228 22.7061 18.3493 22.6454 18.4311 22.5452L20.2372 20.2486C20.3532 20.101 20.4165 19.9164 20.4165 19.7266C20.4139 19.2599 20.0368 18.8828 19.5701 18.8828Z" fill="#360732"/>
</svg>
