<svg width="81" height="81" viewBox="0 0 81 81" fill="none" xmlns="http://www.w3.org/2000/svg">
<g clip-path="url(#clip0_1:222)">
<path d="M59.2076 43.6489C58.2964 43.2405 57.2366 43.3991 56.4874 44.0674L42.4508 56.565C41.8163 57.1286 41.5058 57.9724 41.6273 58.8161L43.8885 74.601C44.0235 75.5494 44.7424 76.2818 45.6503 76.5855L46.3995 76.7036C47.0981 76.7036 47.8035 76.4134 48.2996 75.9139C56.295 67.9151 60.6994 57.2805 60.6994 45.9608C60.7028 44.9618 60.1189 44.0573 59.2076 43.6489Z" fill="#2196F3"/>
<path d="M35.0428 20.2972C23.723 20.2972 13.085 24.7016 5.08963 32.697L4.97151 32.8117C4.29313 33.4901 4.05688 34.4925 4.36063 35.4004C4.66438 36.3116 5.45413 36.9697 6.40251 37.1047L22.1874 39.366L22.5451 39.393C23.2606 39.393 23.9525 39.0892 24.4351 38.5459L36.9328 24.5092C37.5976 23.7634 37.7596 22.7002 37.3513 21.789C36.9429 20.8811 36.0384 20.2972 35.0428 20.2972Z" fill="#2196F3"/>
<path d="M40.0883 64.6346C39.4403 64.6346 38.7923 64.3849 38.2996 63.8921L17.1079 42.7005C16.1596 41.7521 16.1157 40.2266 17.0101 39.2243L32.8928 21.4346C44.1417 8.26876 62.4038 -0.330741 78.5195 0.0135092C79.8694 0.0438842 80.9596 1.13401 80.99 2.48401C81.3612 18.5085 72.7381 36.8584 59.5283 48.1444L41.7792 63.99C41.2932 64.422 40.6924 64.6346 40.0883 64.6346Z" fill="#ECEFF1"/>
<path d="M57.8238 31.6102C55.6604 31.6102 53.5004 30.7867 51.8568 29.1431C48.5695 25.8524 48.5695 20.4997 51.8568 17.2091C55.1474 13.9184 60.5002 13.9184 63.7908 17.2091C67.0781 20.4997 67.0781 25.8524 63.7908 29.1431C62.1438 30.7901 59.9838 31.6102 57.8238 31.6102Z" fill="#2196F3"/>
<path d="M2.53133 81C1.86983 81 1.22183 80.7401 0.742585 80.2575C0.0844597 79.5993 -0.15854 78.6341 0.108085 77.7397C0.95521 74.9013 5.37308 60.5643 8.82233 57.1184C12.8487 53.0954 19.862 53.0954 23.8816 57.1184C25.8931 59.1333 27.0001 61.8029 27.0001 64.6514C27.0001 67.4966 25.8931 70.1696 23.8816 72.1811C20.4357 75.6269 6.09533 80.0448 3.26033 80.8953L2.53133 81Z" fill="#FF9800"/>
<path d="M33.875 20.3108C22.994 20.6044 12.8116 24.975 5.08626 32.697L4.97151 32.8118C4.29313 33.4902 4.05688 34.4925 4.36063 35.4004C4.66438 36.3117 5.45413 36.9698 6.40251 37.1048L17.4826 38.6944L32.8929 21.4313C33.2135 21.0567 33.5409 20.682 33.875 20.3108Z" fill="#1D83D4"/>
<path d="M77.5778 0C62.1608 0 44.9618 8.02913 33.8749 20.3108C33.5408 20.682 33.2134 21.0532 32.8894 21.4312L17.4826 38.6944L17.0101 39.2243C16.1157 40.2266 16.1596 41.7521 17.1079 42.7005L27.7054 53.298L51.8569 29.1465C48.5697 25.8559 48.5697 20.5031 51.8569 17.2125C53.5006 15.5689 55.6639 14.7454 57.8239 14.7454C59.9839 14.7454 62.1473 15.5689 63.7909 17.2125L80.2508 0.752625C79.8053 0.307125 79.1944 0.027 78.5194 0.010125C78.2055 0.003375 77.8917 0 77.5778 0V0Z" fill="#CDD0D2"/>
<path d="M57.8238 14.7454C55.6638 14.7454 53.5004 15.5689 51.8568 17.2125C48.5695 20.5031 48.5695 25.8559 51.8568 29.1465L63.7874 17.2125C62.1438 15.5655 59.9838 14.7454 57.8238 14.7454Z" fill="#1D83D4"/>
<path d="M16.3519 54.1012C13.5912 54.1012 10.8338 55.1069 8.81892 57.1184C5.37304 60.5643 0.955167 74.9047 0.104667 77.7397C-0.161958 78.6307 0.0810417 79.5993 0.739167 80.2575L23.8782 57.1184C21.87 55.1069 19.1127 54.1012 16.3519 54.1012Z" fill="#DE8400"/>
</g>
<defs>
<clipPath id="clip0_1:222">
<rect width="81" height="81" fill="white"/>
</clipPath>
</defs>
</svg>
