<svg width="60" height="60" viewBox="0 0 60 60" fill="none" xmlns="http://www.w3.org/2000/svg">
<rect width="60" height="60" rx="11" fill="white"/>
<g clip-path="url(#clip0_82:5509)">
<path fill-rule="evenodd" clip-rule="evenodd" d="M36.6001 46.2C38.5097 46.2 40.341 45.4414 41.6913 44.0912C43.0415 42.7409 43.8001 40.9096 43.8001 39C43.8001 37.0904 43.0415 35.2591 41.6913 33.9088C40.341 32.5586 38.5097 31.8 36.6001 31.8C34.6905 31.8 32.8592 32.5586 31.5089 33.9088C30.1587 35.2591 29.4001 37.0904 29.4001 39C29.4001 40.9096 30.1587 42.7409 31.5089 44.0912C32.8592 45.4414 34.6905 46.2 36.6001 46.2ZM45.6001 39C45.6001 41.3869 44.6519 43.6761 42.9641 45.364C41.2762 47.0518 38.987 48 36.6001 48C34.2131 48 31.924 47.0518 30.2361 45.364C28.5483 43.6761 27.6001 41.3869 27.6001 39C27.6001 36.6131 28.5483 34.3239 30.2361 32.636C31.924 30.9482 34.2131 30 36.6001 30C38.987 30 41.2762 30.9482 42.9641 32.636C44.6519 34.3239 45.6001 36.6131 45.6001 39Z" fill="#F1590E"/>
<path d="M33.7884 40.6992C33.873 41.772 34.7208 42.6072 36.2418 42.708V43.5H36.9168V42.7026C38.4918 42.5928 39.4116 41.7504 39.4116 40.53C39.4116 39.4176 38.7096 38.8452 37.4496 38.55L36.9168 38.424V36.264C37.5936 36.3414 38.022 36.7104 38.1246 37.2216H39.309C39.2244 36.1866 38.337 35.3784 36.9168 35.2902V34.5H36.2418V35.31C34.8972 35.4414 33.9828 36.2496 33.9828 37.3944C33.9828 38.406 34.6632 39.0504 35.7954 39.3132L36.2418 39.423V41.7126C35.5506 41.6082 35.0916 41.2266 34.989 40.6992H33.7866H33.7884ZM36.2364 38.262C35.5722 38.109 35.2122 37.794 35.2122 37.3224C35.2122 36.7932 35.601 36.3972 36.2418 36.282V38.262H36.2364ZM37.014 39.6048C37.8222 39.792 38.193 40.0944 38.193 40.629C38.193 41.2392 37.7304 41.6568 36.9168 41.7342V39.5832L37.014 39.6048Z" fill="#F1590E"/>
<path d="M18.6 19.2002C18.1227 19.2002 17.6648 19.3898 17.3273 19.7274C16.9897 20.065 16.8 20.5228 16.8 21.0002V35.4002C16.8 35.8776 16.9897 36.3354 17.3273 36.673C17.6648 37.0106 18.1227 37.2002 18.6 37.2002H25.9494C26.0538 36.581 26.2104 35.9798 26.4138 35.4002H22.2C22.2 34.4454 21.8208 33.5297 21.1456 32.8546C20.4705 32.1795 19.5548 31.8002 18.6 31.8002V24.6002C19.5548 24.6002 20.4705 24.2209 21.1456 23.5458C21.8208 22.8706 22.2 21.955 22.2 21.0002H40.2C40.2 21.955 40.5793 22.8706 41.2545 23.5458C41.9296 24.2209 42.8453 24.6002 43.8 24.6002V30.9506C44.484 31.5626 45.0906 32.261 45.6 33.0278V21.0002C45.6 20.5228 45.4104 20.065 45.0728 19.7274C44.7353 19.3898 44.2774 19.2002 43.8 19.2002H18.6Z" fill="#F1590E"/>
<path d="M34.7965 28.3498L34.8001 28.2004C34.7997 27.5805 34.6393 26.9711 34.3343 26.4314C34.0293 25.8917 33.5901 25.4399 33.0592 25.1197C32.5283 24.7996 31.9238 24.622 31.3041 24.604C30.6844 24.5861 30.0706 24.7285 29.5222 25.0175C28.9737 25.3064 28.5091 25.7321 28.1734 26.2533C27.8378 26.7745 27.6424 27.3736 27.6062 27.9925C27.5701 28.6113 27.6943 29.2291 27.967 29.7858C28.2396 30.3426 28.6514 30.8195 29.1625 31.1704C30.7173 29.6895 32.6793 28.7072 34.7965 28.3498Z" fill="#F1590E"/>
</g>
<defs>
<clipPath id="clip0_82:5509">
<rect width="28.8" height="28.8" fill="white" transform="translate(16.8 19.2002)"/>
</clipPath>
</defs>
</svg>
