<svg width="81" height="81" viewBox="0 0 81 81" fill="none" xmlns="http://www.w3.org/2000/svg">
<g clip-path="url(#clip0_1:210)">
<path d="M71.5041 54.0912C69.327 59.9917 66.0344 65.1222 61.7165 69.3387C56.8017 74.1379 50.3661 77.9515 42.5882 80.6719C42.3329 80.7608 42.0666 80.8338 41.799 80.8875C41.4455 80.9574 41.0859 80.9951 40.7293 81H40.6594C40.2794 81 39.8975 80.9617 39.5187 80.8875C39.2511 80.8338 38.9884 80.7608 38.7344 80.6737C30.9473 77.9577 24.5036 74.146 19.5838 69.3467C15.2641 65.1302 11.9721 60.0029 9.79807 54.1024C5.84484 43.3742 6.06979 31.5559 6.25086 22.0588L6.25394 21.913C6.29041 21.1287 6.31389 20.305 6.32687 19.3953C6.39299 14.9292 9.94391 11.2342 14.4107 10.9852C23.7237 10.4655 30.9281 7.42809 37.0838 1.42811L37.1376 1.37867C38.1597 0.441195 39.4476 -0.0185828 40.7293 0.000574737C41.9652 0.0166423 43.1963 0.475802 44.1819 1.37867L44.2345 1.42811C50.3914 7.42809 57.5958 10.4655 66.9088 10.9852C71.3756 11.2342 74.9265 14.9292 74.9926 19.3953C75.0056 20.3111 75.0291 21.1337 75.0656 21.913L75.0674 21.9748C75.2479 31.4898 75.4716 43.3316 71.5041 54.0912Z" fill="#00DD80"/>
<path d="M71.5041 54.0913C69.327 59.9918 66.0344 65.1223 61.7165 69.3387C56.8017 74.138 50.3661 77.9516 42.5881 80.6719C42.3329 80.7609 42.0666 80.8338 41.799 80.8876C41.4455 80.9574 41.0858 80.9951 40.7292 81.0001V0.000610352C41.9652 0.0166779 43.1962 0.475838 44.1819 1.37871L44.2344 1.42815C50.3914 7.42813 57.5958 10.4655 66.9088 10.9852C71.3756 11.2343 74.9265 14.9292 74.9926 19.3953C75.0056 20.3112 75.0291 21.1337 75.0655 21.913L75.0674 21.9748C75.2478 31.4899 75.4715 43.3316 71.5041 54.0913Z" fill="#00AA63"/>
<path d="M60.8451 40.5C60.8451 51.607 51.8268 60.648 40.7291 60.6876H40.6581C29.5276 60.6876 20.4705 51.6311 20.4705 40.5C20.4705 29.3695 29.5276 20.313 40.6581 20.313H40.7291C51.8268 20.3525 60.8451 29.3936 60.8451 40.5Z" fill="white"/>
<path d="M60.8452 40.5C60.8452 51.607 51.827 60.648 40.7292 60.6876V20.313C51.827 20.3525 60.8452 29.3936 60.8452 40.5Z" fill="#E1EBF0"/>
<path d="M49.821 37.593L40.7292 46.686L38.7647 48.6505C38.3006 49.1146 37.6919 49.3464 37.0838 49.3464C36.4751 49.3464 35.867 49.1146 35.4022 48.6505L31.1783 44.4248C30.2501 43.4965 30.2501 41.993 31.1783 41.0642C32.1053 40.136 33.6107 40.136 34.5389 41.0642L37.0838 43.609L46.4604 34.2324C47.3886 33.3036 48.894 33.3036 49.821 34.2324C50.7492 35.1606 50.7492 36.666 49.821 37.593Z" fill="#B4D2D7"/>
<path d="M49.821 37.593L40.7292 46.686V39.9629L46.4604 34.2324C47.3886 33.3036 48.894 33.3036 49.821 34.2324C50.7492 35.1606 50.7492 36.666 49.821 37.593Z" fill="#6FA5AA"/>
</g>
<defs>
<clipPath id="clip0_1:210">
<rect width="81" height="81" fill="white"/>
</clipPath>
</defs>
</svg>
