<svg width="19" height="19" viewBox="0 0 19 19" fill="none" xmlns="http://www.w3.org/2000/svg">
<g clip-path="url(#clip0_79:2002)">
<path d="M1.28809 14.1453V17.2252C1.28809 17.4126 1.44032 17.5687 1.63159 17.5687H4.01273C4.2001 17.5687 4.35624 17.4165 4.35624 17.2252V11.8071L2.62699 13.5364C2.26006 13.8994 1.79164 14.1102 1.28809 14.1453Z" fill="#D5D4D4"/>
<path d="M5.54297 11.7681V17.2252C5.54297 17.4125 5.69521 17.5687 5.88648 17.5687H8.26762C8.45498 17.5687 8.61112 17.4164 8.61112 17.2252V14.0126C8.06854 14.0009 7.56108 13.7862 7.17854 13.4036L5.54297 11.7681Z" fill="#D5D4D4"/>
<path d="M9.79785 13.6732V17.2254C9.79785 17.4127 9.95009 17.5689 10.1414 17.5689H12.5225C12.7099 17.5689 12.866 17.4166 12.866 17.2254V10.6714L10.1375 13.3999C10.0321 13.5053 9.91886 13.5951 9.79785 13.6732Z" fill="#D5D4D4"/>
<path d="M16.8906 6.64307L14.0527 9.48091V17.2255C14.0527 17.4128 14.205 17.569 14.3962 17.569H16.7774C16.9648 17.569 17.1209 17.4167 17.1209 17.2255V6.85776C17.0428 6.7914 16.9843 6.73285 16.9413 6.69381L16.8906 6.64307Z" fill="#D5D4D4"/>
<path d="M18.8383 1.61511C18.7251 1.4941 18.5533 1.43164 18.3347 1.43164C18.3152 1.43164 18.2918 1.43164 18.2723 1.43164C17.1637 1.48239 16.059 1.53704 14.9504 1.58778C14.8021 1.59559 14.5991 1.60339 14.439 1.76344C14.3883 1.81418 14.3493 1.87274 14.318 1.943C14.1541 2.29822 14.3844 2.52853 14.4937 2.63782L14.7708 2.91888C14.9621 3.11405 15.1573 3.30923 15.3525 3.5005L8.65406 10.2028L5.64446 7.19321C5.4649 7.01365 5.22288 6.91216 4.96525 6.91216C4.70762 6.91216 4.46951 7.01365 4.28995 7.19321L0.281052 11.1982C-0.093684 11.5729 -0.093684 12.178 0.281052 12.5527L0.460613 12.7323C0.640174 12.9118 0.882191 13.0133 1.13982 13.0133C1.39745 13.0133 1.63557 12.9118 1.81513 12.7323L4.96525 9.58216L7.97485 12.5918C8.15441 12.7713 8.39643 12.8728 8.65406 12.8728C8.91169 12.8728 9.14981 12.7713 9.33327 12.5918L16.8904 5.03458L17.7453 5.88554C17.8468 5.98703 17.9873 6.12756 18.202 6.12756C18.2918 6.12756 18.3816 6.10414 18.4753 6.05339C18.5377 6.01826 18.5924 5.97922 18.6392 5.93238C18.8071 5.76453 18.8383 5.54984 18.8461 5.38199C18.8773 4.66374 18.9125 3.9455 18.9476 3.22335L18.9983 2.14208C19.01 1.91568 18.9593 1.74002 18.8383 1.61511Z" fill="#D5D4D4"/>
</g>
<defs>
<clipPath id="clip0_79:2002">
<rect width="19" height="19" fill="white"/>
</clipPath>
</defs>
</svg>
