<svg width="29" height="29" viewBox="0 0 29 29" fill="none" xmlns="http://www.w3.org/2000/svg">
<path d="M1.94287 22.6902V28.187C1.94287 28.5214 2.17363 28.8 2.46356 28.8H6.07287C6.35688 28.8 6.59355 28.5283 6.59355 28.187V18.5171L3.97237 21.6034C3.41618 22.2513 2.70615 22.6275 1.94287 22.6902Z" fill="#F1590E"/>
<path d="M8.4126 18.4473V28.1868C8.4126 28.5212 8.64336 28.7999 8.93328 28.7999H12.5426C12.8266 28.7999 13.0633 28.5282 13.0633 28.1868V22.4532C12.2408 22.4323 11.4716 22.0491 10.8918 21.3663L8.4126 18.4473Z" fill="#F1590E"/>
<path d="M14.8445 21.8472V28.187C14.8445 28.5214 15.0752 28.8 15.3652 28.8H18.9745C19.2585 28.8 19.4951 28.5283 19.4951 28.187V16.4897L15.3593 21.3595C15.1995 21.5476 15.0279 21.7079 14.8445 21.8472Z" fill="#F1590E"/>
<path d="M25.6029 9.2998L21.3013 14.3646V28.1867C21.3013 28.5211 21.532 28.7998 21.822 28.7998H25.4313C25.7153 28.7998 25.952 28.5281 25.952 28.1867V9.68298C25.8336 9.56454 25.7449 9.46004 25.6798 9.39037L25.6029 9.2998Z" fill="#F1590E"/>
<path d="M28.5549 0.327438C28.3833 0.111468 28.123 0 27.7916 0C27.7621 0 27.7266 0 27.697 0C26.0166 0.090568 24.3421 0.188103 22.6617 0.278671C22.4369 0.292604 22.1292 0.306538 21.8866 0.592176C21.8097 0.682744 21.7505 0.787245 21.7032 0.912647C21.4546 1.54662 21.8037 1.95766 21.9694 2.15273L22.3895 2.65434C22.6794 3.00268 22.9753 3.35102 23.2711 3.69239L13.1177 15.6543L8.55583 10.283C8.28365 9.96248 7.9168 9.78135 7.52629 9.78135C7.13577 9.78135 6.77484 9.96248 6.50266 10.283L0.426016 17.4309C-0.142005 18.0997 -0.142005 19.1795 0.426016 19.8483L0.698193 20.1688C0.97037 20.4893 1.33722 20.6704 1.72773 20.6704C2.11825 20.6704 2.47918 20.4893 2.75135 20.1688L7.52629 14.5466L12.0882 19.918C12.3604 20.2385 12.7272 20.4196 13.1177 20.4196C13.5083 20.4196 13.8692 20.2385 14.1473 19.918L25.6024 6.43033L26.8982 7.94909C27.052 8.13022 27.265 8.38103 27.5905 8.38103C27.7266 8.38103 27.8626 8.33922 28.0046 8.24866C28.0993 8.18596 28.1822 8.11629 28.2532 8.03269C28.5076 7.73312 28.5549 7.34994 28.5668 7.05037C28.6141 5.76849 28.6673 4.4866 28.7206 3.19775L28.7975 1.26795C28.8153 0.863879 28.7383 0.550375 28.5549 0.327438Z" fill="#F1590E"/>
</svg>
