<svg width="90" height="90" viewBox="0 0 90 90" fill="none" xmlns="http://www.w3.org/2000/svg">
<g clip-path="url(#clip0_78:609)">
<path d="M17.1228 31.8905L59.2787 17.9151C59.771 17.7517 60.2733 17.6198 60.7825 17.5204C60.2316 16.4131 59.4622 15.4288 58.5207 14.6268C57.5791 13.8249 56.4849 13.2219 55.304 12.8543C54.1231 12.4867 52.88 12.362 51.6497 12.4878C50.4193 12.6136 49.2272 12.9872 48.1451 13.5862L15.4381 30.9986L15.3986 31.0117C13.3604 32.1493 11.8333 34.0221 11.1293 36.2476C12.6249 34.2068 14.7202 32.6836 17.1228 31.8905Z" fill="#DFDFDF"/>
<path d="M60.3269 21.0772L18.1711 35.0526C15.9366 35.7961 14.0882 37.3956 13.0316 39.5002C11.975 41.6049 11.7964 44.0427 12.535 46.2788L20.9202 71.5723C21.6637 73.8068 23.2633 75.6552 25.3679 76.7118C27.4725 77.7684 29.9103 77.947 32.1465 77.2084L74.3023 63.233C76.5368 62.4895 78.3852 60.89 79.4418 58.7854C80.4984 56.6807 80.677 54.2429 79.9384 52.0068L71.5532 26.7133C70.8097 24.4788 69.2101 22.6304 67.1055 21.5738C65.0009 20.5172 62.5631 20.3386 60.3269 21.0772ZM62.4546 48.4452C61.6209 48.7216 60.7239 48.7445 59.8771 48.5111C59.0302 48.2778 58.2717 47.7985 57.6972 47.134C57.1228 46.4695 56.7583 45.6495 56.6499 44.7778C56.5414 43.9062 56.6939 43.0219 57.088 42.2369C57.4821 41.4519 58.1002 40.8014 58.864 40.3676C59.6278 39.9339 60.5031 39.7364 61.3792 39.8001C62.2553 39.8638 63.0928 40.1858 63.7858 40.7255C64.4788 41.2652 64.9963 41.9983 65.2727 42.832C65.6433 43.9501 65.5547 45.1696 65.0262 46.2222C64.4977 47.2749 63.5727 48.0745 62.4546 48.4452Z" fill="#DFDFDF"/>
<path d="M15.5489 55.149L11.2034 42.0412C10.257 39.1864 10.2512 33.8763 15.3943 31.0206C19.7617 28.6033 24.3725 27.0748 24.3725 27.0748C24.3725 27.0748 28.1012 28.1781 25.5982 29.0079C23.0952 29.8377 24.2311 33.0434 26.6682 32.2354C29.1053 31.4275 27.6945 35.3312 27.6945 35.3312L21.5705 49.7167L15.5489 55.149Z" fill="#DFDFDF"/>
</g>
<defs>
<clipPath id="clip0_78:609">
<rect width="71.0592" height="71.0592" fill="white" transform="translate(0 22.3608) rotate(-18.3412)"/>
</clipPath>
</defs>
</svg>
