<svg width="11" height="11" viewBox="0 0 11 11" fill="none" xmlns="http://www.w3.org/2000/svg">
<path d="M2.57055 2.23023L6.95573 1.03326L6.7235 0.563859C6.57156 0.25875 6.20098 0.132753 5.89587 0.28469L1.97021 2.23023H2.57055Z" fill="white"/>
<path d="M8.31701 1.06787C8.26267 1.06787 8.20831 1.07528 8.15396 1.09011L7.12376 1.37175L3.97754 2.23025H7.54868H9.10511L8.91241 1.52368C8.83829 1.24822 8.58877 1.06787 8.31701 1.06787Z" fill="white"/>
<path d="M9.74868 2.6626H9.60786H9.4164H9.22493H7.76362H2.39394H1.68984H1.09691H0.986974H0.618866C0.423695 2.6626 0.249523 2.75277 0.135879 2.89483C0.0839978 2.9603 0.0444694 3.03565 0.0222347 3.11841C0.00864683 3.17029 0 3.22464 0 3.28023V3.35434V4.05844V10.1619C0 10.5028 0.276698 10.7795 0.617631 10.7795H9.74745C10.0884 10.7795 10.3651 10.5028 10.3651 10.1619V8.43868H6.70006C6.12072 8.43868 5.65008 7.96804 5.65008 7.38871V6.82296V6.63149V6.44003V6.0151C5.65008 5.73099 5.76372 5.47283 5.94778 5.28383C6.11084 5.11583 6.32948 5.00218 6.57406 4.97377C6.61482 4.96884 6.65682 4.96636 6.69882 4.96636H9.85121H10.0427H10.2341H10.3651V3.28023C10.3663 2.9393 10.0896 2.6626 9.74868 2.6626Z" fill="white"/>
<path d="M10.7987 5.55683C10.737 5.5 10.6641 5.45677 10.5826 5.42836C10.5196 5.40737 10.4529 5.39502 10.3825 5.39502H10.3664H10.3541H10.1626H9.47208H6.70015C6.35921 5.39502 6.08252 5.67171 6.08252 6.01265V6.32022V6.51168V6.70315V7.38748C6.08252 7.72841 6.35921 8.00511 6.70015 8.00511H10.3664H10.3825C10.4529 8.00511 10.5196 7.99276 10.5826 7.97176C10.6641 7.94459 10.737 7.90012 10.7987 7.84329C10.9223 7.73089 11.0001 7.56783 11.0001 7.38749V6.01265C11.0001 5.83229 10.9223 5.66922 10.7987 5.55683ZM7.98976 6.82297C7.98976 6.99343 7.85141 7.13178 7.68095 7.13178H7.47589C7.30543 7.13178 7.16708 6.99343 7.16708 6.82297V6.61792C7.16708 6.51909 7.21278 6.43138 7.28566 6.37579C7.33878 6.33503 7.40426 6.3091 7.47589 6.3091H7.52778H7.68095C7.85141 6.3091 7.98976 6.44744 7.98976 6.61792V6.82297Z" fill="white"/>
</svg>
