<svg width="29" height="29" viewBox="0 0 29 29" fill="none" xmlns="http://www.w3.org/2000/svg">
<path d="M25.1435 12.9938C26.0126 12.9938 26.3754 11.8772 25.6695 11.3626L14.9285 3.54943C14.7751 3.43705 14.5899 3.37646 14.3998 3.37646C14.2096 3.37646 14.0244 3.43705 13.871 3.54943L3.13008 11.3626C2.42415 11.8744 2.78696 12.9938 3.65883 12.9938H5.39977V23.5126H3.37477C3.25102 23.5126 3.14977 23.6138 3.14977 23.7376V25.2001C3.14977 25.3238 3.25102 25.4251 3.37477 25.4251H25.4248C25.5485 25.4251 25.6498 25.3238 25.6498 25.2001V23.7376C25.6498 23.6138 25.5485 23.5126 25.4248 23.5126H23.3998V12.9938H25.1435ZM14.3998 5.53225L22.0245 11.0785H6.77508L14.3998 5.53225ZM7.42477 12.9938H10.7154V23.5126H7.42477V12.9938ZM12.7404 12.9938H16.031V23.5126H12.7404V12.9938ZM21.3748 23.5126H18.056V12.9938H21.3748V23.5126Z" fill="#F1590E"/>
</svg>
